<svg width="42" height="36" viewBox="0 0 42 36" fill="none" xmlns="http://www.w3.org/2000/svg">
<path d="M33.8959 0.435867C33.7067 0.847076 33.6985 1.04446 33.8136 1.68594C33.8383 1.85865 33.8465 1.85042 32.7116 2.02313C32.5389 2.05603 32.3991 2.10537 32.3991 2.14649C32.3991 2.18761 32.2922 2.22051 32.1523 2.22051C32.0208 2.22051 31.9056 2.25341 31.9056 2.30275C31.9056 2.34387 31.848 2.38499 31.7823 2.38499C31.7165 2.38499 31.6589 2.41789 31.6589 2.45901C31.6589 2.50013 31.5849 2.5577 31.5026 2.5906C31.2724 2.65639 30.343 3.58572 30.343 3.74198C30.343 3.80777 30.3101 3.86534 30.2608 3.86534C30.2197 3.86534 30.1785 3.92291 30.1785 3.9887C30.1785 4.05449 30.1456 4.11206 30.0963 4.11206C30.0552 4.11206 30.0141 4.18608 30.0141 4.27655C30.0141 4.36701 29.9812 4.44103 29.9318 4.44103C29.8907 4.44103 29.8496 4.51505 29.8496 4.60551C29.8496 4.69598 29.8167 4.77 29.7673 4.77C29.7262 4.77 29.6686 4.90158 29.6357 5.05784C29.6111 5.2141 29.5535 5.34569 29.5124 5.34569C29.4713 5.34569 29.4384 5.43615 29.4384 5.55129C29.4384 5.66643 29.4055 5.7569 29.3561 5.7569C29.315 5.7569 29.2739 5.90493 29.2739 6.08586C29.2739 6.26679 29.241 6.41483 29.1916 6.41483C29.1505 6.41483 29.1094 6.4724 29.1094 6.54642C29.1094 6.73557 28.8545 7.47574 28.7722 7.53331C28.7311 7.55799 28.6982 7.68135 28.6982 7.82116C28.6982 7.95275 28.6653 8.05966 28.616 8.05966C28.5748 8.05966 28.5337 8.19125 28.5337 8.34751C28.5337 8.50377 28.5008 8.63535 28.4515 8.63535C28.4103 8.63535 28.3692 8.72582 28.3692 8.84096C28.3692 8.95609 28.3363 9.04656 28.287 9.04656C28.2459 9.04656 28.2047 9.11235 28.2047 9.18637C28.2047 9.26861 28.1472 9.40842 28.0814 9.49066C28.0156 9.58113 27.958 9.72094 27.958 9.80318C27.958 9.88542 27.9251 9.95122 27.8758 9.95122C27.8347 9.95122 27.7935 10.0828 27.7935 10.2391C27.7935 10.3953 27.7606 10.5269 27.7113 10.5269C27.6702 10.5269 27.6291 10.6749 27.6291 10.8559C27.6291 11.0368 27.5962 11.1848 27.555 11.1848C27.5139 11.1848 27.4646 11.4316 27.4399 11.7359C27.3659 12.6652 27.2096 13.611 27.1274 13.6356C27.0863 13.6521 27.0534 13.7754 27.0534 13.907C27.0534 14.0386 27.0205 14.1455 26.9711 14.1455C26.93 14.1455 26.8889 14.236 26.8889 14.3511C26.8889 14.4663 26.856 14.5567 26.8066 14.5567C26.7655 14.5567 26.7244 14.6637 26.7244 14.8035C26.7244 14.9351 26.6997 15.0502 26.6668 15.0502C26.6257 15.0502 26.5352 15.2147 26.453 15.4203C26.3625 15.6259 26.2638 15.7904 26.2227 15.7904C26.1816 15.7904 26.1487 15.8479 26.1487 15.9137C26.1487 15.9795 26.1158 16.0371 26.0665 16.0371C26.0253 16.0371 25.9842 16.0947 25.9842 16.1605C25.9842 16.2345 25.8938 16.3907 25.7786 16.5141C25.6635 16.6375 25.573 16.7608 25.573 16.8019C25.573 16.9089 24.3229 18.126 24.0351 18.2987C23.8871 18.3892 23.7637 18.4879 23.7637 18.5208C23.7637 18.5537 23.6897 18.5866 23.5992 18.5866C23.5088 18.5866 23.4347 18.6195 23.4347 18.6688C23.4347 18.7099 23.3854 18.7511 23.3196 18.7511C23.2538 18.7511 23.04 18.8415 22.8508 18.9567C22.6534 19.0718 22.4067 19.1623 22.308 19.1623C22.2011 19.1623 22.1189 19.1952 22.1189 19.2445C22.1189 19.2856 21.9544 19.3268 21.7488 19.3268C21.5432 19.3268 21.3787 19.3597 21.3787 19.409C21.3787 19.4583 20.8195 19.4912 19.8572 19.4912C18.895 19.4912 18.3358 19.4583 18.3358 19.409C18.3358 19.3597 18.1548 19.3268 17.9245 19.3268C17.7025 19.3268 17.5133 19.2856 17.5133 19.2445C17.5133 19.1952 17.4311 19.1623 17.3324 19.1623C17.1268 19.1623 16.0906 18.7511 16.0494 18.6524C16.033 18.6113 15.9508 18.5866 15.8603 18.5866C15.778 18.5866 15.704 18.5455 15.704 18.5043C15.704 18.455 15.63 18.4221 15.5395 18.4221C15.4491 18.4221 15.3751 18.381 15.3751 18.3399C15.3751 18.2905 15.3257 18.2576 15.2681 18.2576C15.2106 18.2576 15.0214 18.126 14.8569 17.9698C14.6925 17.8135 14.5362 17.6819 14.5115 17.6819C14.454 17.6819 14.0592 17.2954 14.0592 17.2378C14.0592 17.2131 13.8947 17.0158 13.6891 16.8019C13.4835 16.5963 13.319 16.3661 13.319 16.3085C13.319 16.2509 13.2861 16.2016 13.2368 16.2016C13.1957 16.2016 13.1545 16.1276 13.1545 16.0371C13.1545 15.9466 13.1216 15.8726 13.0723 15.8726C13.0312 15.8726 12.9901 15.8233 12.9901 15.7575C12.9901 15.6917 12.9407 15.5848 12.8831 15.5272C12.768 15.4038 12.5788 14.8939 12.5788 14.6966C12.5788 14.6225 12.5459 14.5567 12.4966 14.5567C12.4555 14.5567 12.4144 14.4252 12.4144 14.2689C12.4144 14.1126 12.3815 13.9811 12.3321 13.9811C12.291 13.9811 12.2499 13.833 12.2499 13.6439C12.2499 13.4629 12.2088 13.2409 12.1594 13.1504C12.0525 12.9366 12.0525 10.6091 12.1676 10.494C12.2088 10.4529 12.2499 10.2144 12.2499 9.97589C12.2499 9.73739 12.291 9.54001 12.3321 9.54001C12.3815 9.54001 12.4144 9.44954 12.4144 9.3344C12.4144 9.21927 12.4473 9.06301 12.4802 8.98077C12.9243 8.06788 13.023 7.89518 13.0805 7.89518C13.1216 7.89518 13.1545 7.83761 13.1545 7.76359C13.1545 7.68957 13.2286 7.55799 13.3272 7.47574C13.4177 7.3935 13.4835 7.26192 13.4671 7.17967C13.4424 7.04809 13.3355 7.03164 12.5542 7.00697C12.0689 6.99874 11.6742 7.01519 11.6742 7.05631C11.6742 7.13033 11.3206 7.31948 11.1807 7.31948C11.0574 7.31948 11.0821 7.01519 11.2219 6.87538C11.2877 6.80959 11.3452 6.69445 11.3452 6.62866C11.3452 6.55464 11.3863 6.49707 11.4275 6.49707C11.4768 6.49707 11.5097 6.45595 11.5097 6.4066C11.5097 6.29969 11.7071 6.11053 12.1265 5.83091C12.4719 5.59241 12.5213 5.26345 12.2252 5.11541C11.9127 4.95915 11.0492 4.77 10.6379 4.77C10.1774 4.77 8.96022 5.02495 8.96022 5.11541C8.96022 5.15653 8.86975 5.18121 8.75461 5.18121C8.63948 5.18121 8.54901 5.2141 8.54901 5.26344C8.54901 5.30457 8.47499 5.34569 8.38453 5.34569C8.23649 5.34569 8.22005 5.28812 8.22005 4.89336V4.44103H7.9322C7.77594 4.44103 7.64435 4.47393 7.64435 4.52327C7.64435 4.56439 7.57034 4.60551 7.47987 4.60551C7.29894 4.60551 7.22492 4.65486 6.78082 5.07429C6.62456 5.22233 6.46007 5.34569 6.41073 5.34569C6.36961 5.34569 6.32849 5.37036 6.32849 5.40326C6.32849 5.44438 6.21335 5.54307 6.08176 5.63353C5.95018 5.724 5.83504 5.82269 5.83504 5.86381C5.83504 5.89671 5.70345 6.05297 5.54719 6.201C5.39093 6.35726 5.25935 6.51352 5.25935 6.55464C5.25935 6.59576 5.18533 6.678 5.09486 6.74379C5.0044 6.80959 4.93038 6.90005 4.93038 6.9494C4.93038 6.99874 4.7988 7.17967 4.64254 7.34416C4.48628 7.50864 4.35469 7.70602 4.35469 7.77181C4.35469 7.83761 4.32179 7.89518 4.27245 7.89518C4.23133 7.89518 4.19021 7.94452 4.19021 8.01031C4.19021 8.109 3.67209 9.0959 3.56517 9.20282C3.54872 9.21926 3.41714 9.10413 3.27733 8.93964C3.02238 8.64357 2.71808 8.55311 2.49603 8.70114C2.3151 8.81628 1.96969 9.4002 1.96969 9.58935C1.96969 9.69627 1.93679 9.78673 1.88744 9.78673C1.84632 9.78673 1.8052 9.93477 1.8052 10.1157C1.8052 10.2966 1.77231 10.4447 1.73118 10.4447C1.69006 10.4447 1.6325 10.642 1.60782 10.8723C1.58315 11.1108 1.50913 11.7688 1.43512 12.3362C1.33643 13.0764 1.31175 13.7672 1.34465 14.7788C1.3611 15.6094 1.34465 16.2016 1.30353 16.2016C1.26241 16.2016 1.22951 16.1605 1.22951 16.1193C1.22951 16.07 1.17194 16.0371 1.09792 16.0371C1.03213 16.0371 0.916993 15.9795 0.8512 15.9137C0.777183 15.8479 0.596251 15.7904 0.439992 15.7904C0.185044 15.7904 0.160371 15.815 0.160371 16.0371C0.160371 16.1687 0.111026 16.3743 0.0616812 16.4976C-0.0205604 16.6786 -0.0205604 16.7279 0.0616812 16.7608C0.127474 16.7773 0.160371 16.9746 0.160371 17.3201C0.160371 17.6161 0.193268 17.8464 0.242613 17.8464C0.291958 17.8464 0.324854 18.0109 0.324854 18.2165C0.324854 18.4221 0.365975 18.5866 0.407096 18.5866C0.456441 18.5866 0.489337 18.6688 0.489337 18.7675C0.497561 18.8744 0.546906 19.0471 0.6127 19.1623C0.678493 19.2774 0.727838 19.4666 0.736062 19.5899C0.736062 19.7215 0.777183 19.8202 0.818304 19.8202C0.867648 19.8202 0.900545 19.9107 0.900545 20.0258C0.900545 20.1409 0.941666 20.2314 0.982787 20.2314C1.03213 20.2314 1.06503 20.363 1.06503 20.5193C1.06503 20.6755 1.10615 20.8071 1.14727 20.8071C1.19661 20.8071 1.22951 20.8811 1.22951 20.9716C1.22951 21.0621 1.26241 21.1361 1.31175 21.1361C1.35287 21.1361 1.41044 21.2677 1.44334 21.4239C1.46801 21.5802 1.52558 21.7118 1.5667 21.7118C1.60782 21.7118 1.64072 21.7858 1.64072 21.8762C1.64072 21.9667 1.68184 22.0407 1.72296 22.0407C1.77231 22.0407 1.8052 22.1147 1.8052 22.197C1.8052 22.2875 1.82987 22.3697 1.871 22.3861C1.94501 22.419 2.29043 23.0112 2.35622 23.2086C2.38089 23.2908 2.43024 23.3566 2.47136 23.3566C2.51248 23.3566 2.54538 23.4142 2.54538 23.48C2.54538 23.5457 2.5865 23.6033 2.62762 23.6033C2.67696 23.6033 2.70986 23.6773 2.70986 23.7596C2.70986 23.85 2.7592 23.9405 2.81677 23.9652C2.89079 24.0063 2.89079 24.0227 2.81677 24.0639C2.7592 24.0885 2.70986 24.1626 2.70986 24.2284C2.70986 24.2941 2.67696 24.3435 2.62762 24.3435C2.57827 24.3435 2.54538 24.5655 2.54538 24.8369C2.54538 25.1083 2.57827 25.3304 2.62762 25.3304C2.67696 25.3304 2.70986 25.4209 2.70986 25.536C2.70986 25.6511 2.74276 25.7416 2.78388 25.7416C2.825 25.7416 2.88257 25.8074 2.91546 25.8979C2.94014 25.9801 3.07172 26.1693 3.20331 26.3091C3.34312 26.4489 3.45003 26.6051 3.45003 26.6545C3.45003 26.7038 3.65564 26.9423 3.90236 27.1808C4.14909 27.4275 4.35469 27.6578 4.35469 27.7072C4.35469 27.7565 4.39581 27.7976 4.43693 27.7976C4.48628 27.7976 4.68366 27.9539 4.88926 28.1431C5.31692 28.5625 5.4814 28.7023 5.53897 28.7023C5.56364 28.7023 5.76102 28.8668 5.97485 29.0724C6.18045 29.278 6.39428 29.4425 6.4354 29.4425C6.47652 29.4425 6.57521 29.5083 6.64923 29.5905C6.72325 29.6727 6.90418 29.8126 7.04399 29.8948C7.19202 29.9853 7.31539 30.084 7.31539 30.1168C7.31539 30.1497 7.3894 30.1826 7.47987 30.1826C7.57034 30.1826 7.64435 30.2155 7.64435 30.2649C7.64435 30.306 7.67725 30.3471 7.71837 30.3471C7.75949 30.3471 7.85818 30.1086 7.94042 29.8126C8.02266 29.5165 8.12136 29.278 8.15425 29.278C8.19537 29.278 8.22005 29.1875 8.22005 29.0724C8.22005 28.7105 8.36808 28.8503 8.4092 29.2533C8.49967 30.0593 8.6148 30.6514 8.70527 30.8241C8.75461 30.9146 8.79574 31.0873 8.79574 31.2024C8.79574 31.3176 8.83686 31.4163 8.87798 31.4163C8.92732 31.4163 8.96022 31.5067 8.96022 31.6219C8.96022 31.737 9.00134 31.8275 9.04246 31.8275C9.0918 31.8275 9.1247 31.9591 9.1247 32.1153C9.1247 32.4443 9.03424 32.469 8.50789 32.2798C8.32696 32.214 8.02267 32.1647 7.83351 32.1564C7.63613 32.1564 7.47987 32.1153 7.47987 32.0742C7.47987 32.0249 7.27427 31.992 7.02754 31.992C6.78082 31.992 6.57521 31.9508 6.57521 31.9097C6.57521 31.8604 6.36961 31.8275 6.12288 31.8275C5.87616 31.8275 5.67056 31.7946 5.67056 31.7535C5.67056 31.7123 5.53075 31.663 5.36626 31.6383C4.65898 31.5314 4.05862 31.3998 3.99283 31.3258C3.89414 31.2353 3.61452 31.2271 3.61452 31.3176C3.61452 31.4163 4.37936 31.8275 4.55207 31.8275C4.62609 31.8275 4.68366 31.8604 4.68366 31.9097C4.68366 31.9508 4.77412 31.992 4.88926 31.992C5.0044 31.992 5.09486 32.0249 5.09486 32.0742C5.09486 32.1153 5.16888 32.1564 5.25935 32.1564C5.34981 32.1564 5.42383 32.1893 5.42383 32.2387C5.42383 32.2798 5.5143 32.3374 5.62944 32.3703C5.74457 32.3949 5.83504 32.4525 5.83504 32.4936C5.83504 32.5348 5.92551 32.5676 6.04064 32.5676C6.15578 32.5676 6.24625 32.6005 6.24625 32.6499C6.24625 32.691 6.36138 32.7321 6.49297 32.7321C6.63278 32.7321 6.7397 32.765 6.7397 32.8144C6.7397 32.8555 6.78904 32.8966 6.85483 32.8966C6.92063 32.8966 7.09334 32.9624 7.24959 33.0364C7.74304 33.2831 7.80884 33.3078 7.9322 33.3078C7.99799 33.3078 8.05556 33.3407 8.05556 33.3901C8.05556 33.4312 8.1707 33.4723 8.30229 33.4723C8.4421 33.4723 8.54901 33.5052 8.54901 33.5545C8.54901 33.5957 8.6806 33.6368 8.83686 33.6368C8.99312 33.6368 9.1247 33.6697 9.1247 33.719C9.1247 33.7602 9.19049 33.8013 9.27274 33.8013C9.35498 33.8013 9.49479 33.8588 9.58525 33.9246C9.6675 33.9904 9.8402 34.048 9.97179 34.048C10.0952 34.048 10.1938 34.0809 10.1938 34.1302C10.1938 34.1714 10.3254 34.2125 10.4817 34.2125C10.6379 34.2125 10.7695 34.2454 10.7695 34.2947C10.7695 34.3358 10.9011 34.377 11.0574 34.377C11.2136 34.377 11.3452 34.4016 11.3452 34.4428C11.3452 34.5085 11.962 34.6895 12.439 34.7635C12.6035 34.7882 12.7433 34.8375 12.7433 34.8786C12.7433 34.9198 12.9078 34.9527 13.1134 34.9527C13.319 34.9527 13.4835 34.9856 13.4835 35.0349C13.4835 35.076 13.648 35.1171 13.8454 35.1171C14.051 35.1171 14.2401 35.15 14.2648 35.1994C14.2895 35.2405 14.4457 35.2816 14.602 35.2816C14.7665 35.2816 14.9639 35.3227 15.0543 35.3639C15.1366 35.4132 15.4491 35.4708 15.7451 35.5037C16.0412 35.5283 16.2797 35.5859 16.2797 35.6188C16.2797 35.6599 16.5593 35.6928 16.8965 35.6928C17.2502 35.6928 17.5133 35.7257 17.5133 35.7751C17.5133 35.8244 17.8341 35.8573 18.3193 35.8573C18.7634 35.8573 19.1664 35.8984 19.2075 35.9396C19.2651 35.9971 20.3013 36.0136 22.2916 35.9889C25.7046 35.9396 27.0534 35.882 27.0534 35.7668C27.0534 35.7257 27.2754 35.6928 27.5468 35.6928C27.8182 35.6928 28.1061 35.6599 28.1883 35.6188C28.3363 35.5366 29.1587 35.3803 29.792 35.3063C30.0058 35.2816 30.1785 35.2323 30.1785 35.1912C30.1785 35.15 30.343 35.1171 30.5486 35.1171C30.7542 35.1171 30.9187 35.076 30.9187 35.0349C30.9187 34.9856 31.0421 34.9527 31.1983 34.9527C31.3546 34.9527 31.5109 34.9115 31.5355 34.8704C31.5602 34.8211 31.6836 34.7882 31.8069 34.7882C31.9303 34.7799 32.1194 34.7306 32.2346 34.6648C32.3497 34.599 32.5389 34.5497 32.6622 34.5414C32.7856 34.5414 32.909 34.5085 32.9336 34.4592C32.9583 34.4181 33.0899 34.377 33.2297 34.377C33.3613 34.377 33.4682 34.3358 33.4682 34.2947C33.4682 34.2454 33.5587 34.2125 33.6738 34.2125C33.7889 34.2125 33.8794 34.1714 33.8794 34.1302C33.8794 34.0809 33.9863 34.048 34.1097 34.048C34.2413 34.048 34.414 33.9904 34.5044 33.9246C34.5867 33.8588 34.7265 33.8013 34.8087 33.8013C34.8828 33.8013 34.9486 33.7602 34.9486 33.719C34.9486 33.6697 35.0637 33.6368 35.1953 33.6368C35.3351 33.6368 35.442 33.5957 35.442 33.5545C35.442 33.5052 35.5325 33.4723 35.6476 33.4723C35.7627 33.4723 35.8532 33.4312 35.8532 33.3901C35.8532 33.3407 35.9108 33.3078 35.993 33.3078C36.174 33.3078 36.7579 33.0446 36.7579 32.9624C36.7579 32.9295 36.8483 32.8966 36.9635 32.8966C37.0786 32.8966 37.1691 32.8555 37.1691 32.8144C37.1691 32.765 37.2431 32.7321 37.3336 32.7321C37.424 32.7321 37.498 32.691 37.498 32.6499C37.498 32.6005 37.5885 32.5676 37.7036 32.5676C37.8188 32.5676 37.9092 32.5348 37.9092 32.4936C37.9092 32.4525 38.0737 32.3538 38.2793 32.2634C38.4849 32.1811 38.6494 32.0906 38.6494 32.0495C38.6494 32.0166 38.7234 31.992 38.8139 31.992C38.9044 31.992 38.9784 31.9508 38.9784 31.9097C38.9784 31.8604 39.0524 31.8275 39.1429 31.8275C39.2333 31.8275 39.3074 31.7864 39.3074 31.7452C39.3074 31.6959 39.3485 31.663 39.3978 31.663C39.4472 31.663 39.5376 31.6136 39.5952 31.5561C39.883 31.3011 39.9653 31.2518 40.0886 31.2518C40.1544 31.2518 40.212 31.2107 40.212 31.1695C40.212 31.1202 40.2696 31.0873 40.3354 31.0873C40.4012 31.0873 40.4587 31.0462 40.4587 31.0051C40.4587 30.9557 40.5163 30.9228 40.5903 30.9228C40.6643 30.9228 40.8124 30.8324 40.9193 30.7172C41.0262 30.6021 41.166 30.5116 41.24 30.5116C41.3058 30.5116 41.3634 30.4705 41.3634 30.4294C41.3634 30.38 41.2894 30.3471 41.1989 30.3471C41.1084 30.3471 41.0344 30.38 41.0344 30.4294C41.0344 30.4705 40.9522 30.5116 40.8453 30.5116C40.7466 30.5116 40.5903 30.561 40.4999 30.6185C40.4094 30.6843 40.1627 30.783 39.9488 30.8488C39.7268 30.9064 39.5541 30.9886 39.5541 31.0215C39.5541 31.0544 39.4225 31.0873 39.2662 31.0873C39.11 31.0873 38.9784 31.1202 38.9784 31.1695C38.9784 31.2107 38.8715 31.2518 38.7399 31.2518C38.6001 31.2518 38.4767 31.2847 38.452 31.3258C38.4191 31.3669 38.2547 31.4245 38.0737 31.4574C37.8928 31.4903 37.7283 31.5479 37.6954 31.589C37.6707 31.6301 37.5309 31.663 37.3747 31.663C37.2184 31.663 37.0704 31.6959 37.0457 31.7452C37.021 31.7864 36.8648 31.8275 36.7085 31.8275C36.5523 31.8275 36.4289 31.8604 36.4289 31.9097C36.4289 31.9508 36.2644 31.992 36.0588 31.992C35.8532 31.992 35.6887 32.0249 35.6887 32.066C35.6887 32.1071 35.5489 32.1564 35.3844 32.1729C35.2117 32.1976 35.0061 32.2387 34.9321 32.2716C34.7101 32.3703 34.743 32.1071 34.9814 31.8686C35.0884 31.7617 35.2611 31.5067 35.368 31.2929C35.4667 31.0873 35.5818 30.9228 35.6229 30.9228C35.6558 30.9228 35.6887 30.8652 35.6887 30.7995C35.6887 30.7337 35.7216 30.6761 35.7627 30.6761C35.8039 30.6761 35.8532 30.561 35.8861 30.4294C35.9355 30.1497 36.1411 30.1004 36.2233 30.3471C36.248 30.4376 36.3138 30.5116 36.3549 30.5116C36.396 30.5116 36.4289 30.6432 36.4289 30.7995C36.4289 31.0297 36.4618 31.0873 36.5934 31.0873C36.6839 31.0873 36.7579 31.038 36.7579 30.9804C36.7579 30.9228 36.8483 30.783 36.9635 30.6596C37.0786 30.5363 37.1691 30.38 37.1691 30.306C37.1691 30.2402 37.2102 30.1826 37.2513 30.1826C37.3007 30.1826 37.3336 30.1251 37.3336 30.0593C37.3336 29.9935 37.3747 29.9359 37.4158 29.9359C37.4651 29.9359 37.498 29.8619 37.498 29.7714C37.498 29.681 37.5392 29.607 37.5803 29.607C37.6296 29.607 37.6625 29.5412 37.6625 29.4589C37.6625 29.3849 37.7201 29.2451 37.7859 29.1628C37.8517 29.0724 37.9092 28.9326 37.9092 28.8503C37.9092 28.7681 37.9504 28.7023 37.9915 28.7023C38.0408 28.7023 38.0737 28.5707 38.0737 28.4144C38.0737 28.2582 38.1149 28.1266 38.156 28.1266C38.2053 28.1266 38.2382 27.9621 38.2382 27.7565C38.2382 27.5509 38.2793 27.3864 38.3205 27.3864C38.3698 27.3864 38.4027 27.2055 38.4027 26.9917C38.4027 26.7778 38.4356 26.564 38.4849 26.5147C38.5261 26.4735 38.6083 25.536 38.6659 24.4422C38.7234 23.3484 38.7975 22.4519 38.8386 22.4519C38.8797 22.4519 39.0771 22.6164 39.2827 22.822C39.6857 23.2332 39.7186 23.2497 39.7186 23.0687C39.7186 23.003 39.7597 22.9454 39.8008 22.9454C39.8502 22.9454 39.883 22.5342 39.883 21.8762C39.883 21.2183 39.8502 20.8071 39.8008 20.8071C39.7597 20.8071 39.7186 20.6097 39.7186 20.363C39.7186 20.1163 39.6857 19.886 39.6363 19.8613C39.5952 19.8367 39.5541 19.7133 39.5541 19.5899C39.5459 19.4666 39.4965 19.2774 39.4307 19.1623C39.3649 19.0471 39.3156 18.8744 39.3074 18.7675C39.3074 18.6688 39.2745 18.5866 39.2251 18.5866C39.184 18.5866 39.1429 18.4714 39.1429 18.3399C39.1429 18.2 39.11 18.0931 39.0606 18.0931C39.0195 18.0931 38.9784 18.0027 38.9784 17.8875C38.9784 17.7724 38.9455 17.6819 38.8961 17.6819C38.855 17.6819 38.8139 17.5997 38.8139 17.4928C38.8139 17.3941 38.7234 17.1474 38.6083 16.95C38.4932 16.7608 38.4027 16.547 38.4027 16.4812C38.4027 16.4154 38.3698 16.3661 38.3205 16.3661C38.2793 16.3661 38.2382 16.2756 38.2382 16.1605C38.2382 16.0453 38.2053 15.9548 38.156 15.9548C38.1149 15.9548 38.0737 15.8808 38.0737 15.7904C38.0737 15.6999 38.0408 15.6259 37.9997 15.6259C37.9586 15.6259 37.8188 15.3792 37.6954 15.0666C37.5638 14.7623 37.4322 14.4992 37.3994 14.4909C37.3582 14.4745 37.3336 14.4087 37.3336 14.3429C37.3336 14.2031 36.9059 13.2902 36.8237 13.2573C36.7825 13.2409 36.7579 13.134 36.7579 13.0271C36.7579 12.9201 36.725 12.8297 36.6756 12.8297C36.6345 12.8297 36.5934 12.7145 36.5934 12.5829C36.5934 12.4431 36.5605 12.3362 36.5111 12.3362C36.47 12.3362 36.4289 12.2622 36.4289 12.1635C36.4289 12.073 36.3878 11.925 36.3384 11.8345C36.2891 11.7441 36.2151 11.3822 36.174 11.0368C36.0095 9.70449 36.0506 9.78673 35.6394 9.78673C35.3022 9.78673 34.9732 9.64692 34.743 9.41665C34.5702 9.24394 34.3729 8.88208 34.4551 8.88208C34.4962 8.88208 34.5373 8.91497 34.5373 8.96432C34.5373 9.00544 34.5867 9.04656 34.6443 9.04656C34.7018 9.04656 34.8005 9.12058 34.8663 9.21104C34.9321 9.30151 35.0472 9.37552 35.1295 9.37552C35.2117 9.37552 35.2775 9.40842 35.2775 9.45777C35.2775 9.49889 35.442 9.54001 35.6394 9.54001C35.845 9.54001 36.0341 9.49889 36.0588 9.45777C36.0835 9.40842 36.1822 9.37552 36.2726 9.37552C36.3549 9.37552 36.4289 9.3344 36.4289 9.29328C36.4289 9.24394 36.4947 9.21104 36.5769 9.21104C36.651 9.21104 36.7579 9.11235 36.8154 8.98077C37.0128 8.53666 37.1691 8.01854 37.1691 7.81293C37.1691 7.52509 36.8977 6.46417 36.8072 6.39838C36.6592 6.29147 36.9964 6.08586 37.3253 6.08586C37.5063 6.08586 37.679 6.04474 37.7036 6.00362C37.7283 5.95428 38.0655 5.92138 38.452 5.92138C39.0113 5.92138 39.1429 5.89671 39.1429 5.79802C39.1429 5.73222 39.11 5.67465 39.0606 5.67465C39.0195 5.67465 38.9784 5.61709 38.9784 5.54307C38.9784 5.47728 38.929 5.37036 38.8797 5.30457C38.8221 5.247 38.6988 5.09896 38.6165 4.98382C38.5343 4.86869 38.4274 4.77 38.3862 4.77C38.1806 4.77 38.0737 4.51505 38.0737 3.9887C38.0737 3.47058 37.8928 2.71395 37.7201 2.48368C37.679 2.43433 37.5721 2.38499 37.4898 2.38499C37.3665 2.38499 37.3336 2.32742 37.3336 2.09715C37.3336 1.94089 37.3007 1.8093 37.2513 1.8093C37.2102 1.8093 37.1691 1.73528 37.1691 1.64482C37.1691 1.55435 37.1115 1.48033 37.0457 1.48033C36.9799 1.48033 36.9224 1.51323 36.9224 1.56258C36.9224 1.6037 36.8895 1.64482 36.8401 1.64482C36.799 1.64482 36.7579 1.55435 36.7579 1.43921C36.7579 1.32408 36.725 1.23361 36.6756 1.23361C36.6345 1.23361 36.5934 1.11847 36.5934 0.986885C36.5934 0.68259 36.544 0.68259 36.3055 0.953987L36.1246 1.16782L35.9848 0.904644C35.9108 0.756607 35.8532 0.567451 35.8532 0.493435C35.8532 0.205589 35.4502 0.230259 35.442 0.509884C35.442 0.551003 35.368 0.57568 35.2775 0.57568C35.1542 0.57568 35.113 0.518108 35.113 0.370071C35.113 0.222038 35.0719 0.164471 34.9486 0.164471C34.8581 0.164471 34.7841 0.222038 34.7841 0.28783C34.7841 0.48521 34.6196 0.427643 34.5373 0.205589C34.488 0.0657806 34.3975 -1.52588e-05 34.2742 -1.52588e-05C34.1261 -1.52588e-05 34.0439 0.0904541 33.8959 0.435867ZM22.5547 26.6627C22.7028 26.7614 22.859 26.8848 22.9166 26.9341C23.2209 27.189 23.2703 27.2219 23.3525 27.2219C23.3936 27.2219 23.4347 27.296 23.4347 27.3782C23.4347 27.4687 23.5088 27.5674 23.5992 27.592C23.6897 27.6167 23.7637 27.6989 23.7637 27.7565C23.7637 27.8223 23.8953 28.0115 24.0515 28.1759C24.2078 28.3322 24.3394 28.5214 24.3394 28.5872C24.3394 28.6529 24.3805 28.7023 24.4216 28.7023C24.471 28.7023 24.5039 28.7763 24.5039 28.8668C24.5039 28.9572 24.545 29.0313 24.5861 29.0313C24.6355 29.0313 24.6684 29.1217 24.6684 29.2369C24.6684 29.352 24.7013 29.4425 24.7342 29.4425C24.8904 29.4425 25.0796 30.38 25.0796 31.1284C25.0796 31.7864 25.0467 31.9755 24.8575 32.4196C24.7342 32.7075 24.5121 33.0611 24.3641 33.2009L24.1009 33.4723H22.0366C20.3507 33.4723 19.9477 33.4476 19.849 33.3572C19.7832 33.2914 19.7339 33.2009 19.7339 33.1516C19.7339 33.1022 19.701 33.0611 19.6516 33.0611C19.6105 33.0611 19.5694 32.9871 19.5694 32.8966C19.5694 32.8061 19.5365 32.7321 19.4871 32.7321C19.446 32.7321 19.4049 32.6663 19.4049 32.5841C19.4049 32.5019 19.3638 32.3949 19.3062 32.3374C18.9937 32.0249 18.9855 30.1991 19.2898 29.5905C19.3556 29.4671 19.4049 29.2944 19.4049 29.1957C19.4049 29.1053 19.446 29.0313 19.4871 29.0313C19.5365 29.0313 19.5694 28.9408 19.5694 28.8257C19.5694 28.7105 19.6105 28.6201 19.6516 28.6201C19.701 28.6201 19.7339 28.546 19.7339 28.4556C19.7339 28.3651 19.775 28.2911 19.8161 28.2911C19.8654 28.2911 19.8983 28.2335 19.8983 28.1595C19.8983 28.0937 19.9477 27.9786 20.0053 27.921C20.2191 27.6743 20.3096 27.5591 20.3096 27.5098C20.3096 27.4029 21.132 26.6463 21.2471 26.6463C21.3211 26.6463 21.3787 26.6051 21.3787 26.564C21.3787 26.5147 21.5843 26.4818 21.8392 26.4818C22.1847 26.4818 22.3656 26.5311 22.5547 26.6627ZM17.0199 27.8799C17.0199 27.921 17.1844 27.9621 17.39 27.9621C17.5956 27.9621 17.7601 27.995 17.7601 28.0444C17.7601 28.0855 17.8423 28.1266 17.941 28.1266C18.0479 28.1266 18.344 28.2253 18.5989 28.3487L19.0759 28.5789L19.0266 28.9079C18.9937 29.0888 18.9443 29.2451 18.9032 29.2615C18.8621 29.278 18.8292 29.4589 18.8292 29.6563C18.8292 29.8537 18.7963 30.0182 18.747 30.0182C18.6976 30.0182 18.6647 30.4294 18.6647 31.0873C18.6647 31.7452 18.6976 32.1564 18.747 32.1564C18.7963 32.1564 18.8292 32.288 18.8292 32.4443C18.8292 32.6005 18.8703 32.7321 18.9114 32.7321C18.9608 32.7321 18.9937 32.7979 18.9937 32.8884C18.9937 32.9706 19.0513 33.0858 19.1171 33.1433C19.1828 33.2009 19.2404 33.2996 19.2404 33.3572C19.2404 33.4476 19.0677 33.4723 18.4591 33.4723C17.9903 33.4723 17.6778 33.4394 17.6778 33.3901C17.6778 33.3407 17.2666 33.3078 16.6169 33.3078C15.6711 33.3078 15.5395 33.2914 15.3422 33.1351C15.227 33.0446 15.1283 32.9213 15.1283 32.8637C15.1283 32.8144 15.0543 32.7157 14.9639 32.6499C14.8734 32.5841 14.7994 32.469 14.7994 32.3867C14.7994 32.3045 14.7665 32.2387 14.7171 32.2387C14.676 32.2387 14.6349 32.1482 14.6349 32.0331C14.6349 31.9179 14.602 31.8275 14.5609 31.8275C14.4704 31.8275 14.2237 31.1778 14.2237 30.9393C14.2237 30.8406 14.1908 30.7583 14.1414 30.7583C14.0921 30.7583 14.0592 30.5363 14.0592 30.2649C14.0592 29.9935 14.0263 29.7714 13.977 29.7714C13.9358 29.7714 13.8947 29.6234 13.8947 29.4425C13.8947 29.2615 13.9358 29.1135 13.977 29.1135C14.0263 29.1135 14.0592 28.9984 14.0592 28.8586C14.0592 28.5214 14.5938 27.9621 14.9145 27.9621C15.0296 27.9621 15.1283 27.921 15.1283 27.8799C15.1283 27.8305 15.4984 27.7976 16.0741 27.7976C16.6498 27.7976 17.0199 27.8305 17.0199 27.8799ZM28.9963 28.8051C29.058 28.8359 29.1423 28.8668 29.2739 28.8668C29.4137 28.8668 29.5864 28.8997 29.6686 28.9408C29.7427 28.9819 29.9647 29.0806 30.1539 29.1628C30.3512 29.2533 30.5075 29.3438 30.5075 29.3767C30.5075 29.4178 30.5486 29.4425 30.598 29.4425C30.7049 29.4425 30.9187 29.6481 30.9187 29.755C30.9187 29.8043 30.9598 29.8537 31.0092 29.8701C31.1325 29.9112 31.1243 31.0297 31.0092 31.0709C30.9598 31.0873 30.9187 31.1695 30.9187 31.26C30.9187 31.3422 30.8858 31.4163 30.8365 31.4163C30.7954 31.4163 30.7542 31.4574 30.7542 31.5067C30.7542 31.5561 30.7049 31.6465 30.6555 31.7041C30.4335 31.9508 30.343 32.066 30.343 32.1153C30.343 32.14 30.2608 32.2551 30.1621 32.3703C29.4137 33.1927 29.1341 33.3078 27.9004 33.3078C27.3906 33.3078 27.0534 33.3407 27.0534 33.3901C27.0534 33.5299 25.499 33.497 25.3592 33.3572C25.2358 33.2256 25.1947 32.5676 25.3181 32.5676C25.4743 32.5676 25.6388 30.709 25.499 30.5692C25.4497 30.5198 25.4085 30.3225 25.4085 30.1333C25.4085 29.9359 25.3674 29.7714 25.3098 29.755C25.0549 29.6645 26.1898 28.8668 26.5681 28.8668C26.6504 28.8668 26.7244 28.8257 26.7244 28.7845C26.7244 28.7352 27.1603 28.7023 27.8758 28.7023C28.5913 28.7023 28.9346 28.764 28.9963 28.8051Z" fill="#8C8C8C"/>
</svg>
