<svg width="671" height="584" viewBox="0 0 671 584" fill="none" xmlns="http://www.w3.org/2000/svg">
<path d="M549.533 7.06671C546.467 13.7334 546.333 16.9333 548.2 27.3334C548.6 30.1334 548.733 30.0001 530.333 32.8C527.533 33.3334 525.267 34.1334 525.267 34.8C525.267 35.4667 523.533 36 521.267 36C519.133 36 517.267 36.5334 517.267 37.3334C517.267 38.0001 516.333 38.6667 515.267 38.6667C514.2 38.6667 513.267 39.2 513.267 39.8667C513.267 40.5334 512.067 41.4667 510.733 42C507 43.0667 491.933 58.1334 491.933 60.6667C491.933 61.7333 491.4 62.6667 490.6 62.6667C489.933 62.6667 489.267 63.6 489.267 64.6667C489.267 65.7333 488.733 66.6667 487.933 66.6667C487.267 66.6667 486.6 67.8667 486.6 69.3334C486.6 70.8 486.067 72 485.267 72C484.6 72 483.933 73.2 483.933 74.6667C483.933 76.1334 483.4 77.3333 482.6 77.3333C481.933 77.3333 481 79.4667 480.467 82C480.067 84.5334 479.133 86.6667 478.467 86.6667C477.8 86.6667 477.267 88.1334 477.267 90C477.267 91.8667 476.733 93.3333 475.933 93.3333C475.267 93.3333 474.6 95.7334 474.6 98.6667C474.6 101.6 474.067 104 473.267 104C472.6 104 471.933 104.933 471.933 106.133C471.933 109.2 467.8 121.2 466.467 122.133C465.8 122.533 465.267 124.533 465.267 126.8C465.267 128.933 464.733 130.667 463.933 130.667C463.267 130.667 462.6 132.8 462.6 135.333C462.6 137.867 462.067 140 461.267 140C460.6 140 459.933 141.467 459.933 143.333C459.933 145.2 459.4 146.667 458.6 146.667C457.933 146.667 457.267 147.733 457.267 148.933C457.267 150.267 456.333 152.533 455.267 153.867C454.2 155.333 453.267 157.6 453.267 158.933C453.267 160.267 452.733 161.333 451.933 161.333C451.267 161.333 450.6 163.467 450.6 166C450.6 168.533 450.067 170.667 449.267 170.667C448.6 170.667 447.933 173.067 447.933 176C447.933 178.933 447.4 181.333 446.733 181.333C446.067 181.333 445.267 185.333 444.867 190.267C443.667 205.333 441.133 220.667 439.8 221.067C439.133 221.333 438.6 223.333 438.6 225.467C438.6 227.6 438.067 229.333 437.267 229.333C436.6 229.333 435.933 230.8 435.933 232.667C435.933 234.533 435.4 236 434.6 236C433.933 236 433.267 237.733 433.267 240C433.267 242.133 432.867 244 432.333 244C431.667 244 430.2 246.667 428.867 250C427.4 253.333 425.8 256 425.133 256C424.467 256 423.933 256.933 423.933 258C423.933 259.067 423.4 260 422.6 260C421.933 260 421.267 260.933 421.267 262C421.267 263.2 419.8 265.733 417.933 267.733C416.067 269.733 414.6 271.733 414.6 272.4C414.6 274.133 394.333 293.867 389.667 296.667C387.267 298.133 385.267 299.733 385.267 300.267C385.267 300.8 384.067 301.333 382.6 301.333C381.133 301.333 379.933 301.867 379.933 302.667C379.933 303.333 379.133 304 378.067 304C377 304 373.533 305.467 370.467 307.333C367.267 309.2 363.267 310.667 361.667 310.667C359.933 310.667 358.6 311.2 358.6 312C358.6 312.667 355.933 313.333 352.6 313.333C349.267 313.333 346.6 313.867 346.6 314.667C346.6 315.467 337.533 316 321.933 316C306.333 316 297.267 315.467 297.267 314.667C297.267 313.867 294.333 313.333 290.6 313.333C287 313.333 283.933 312.667 283.933 312C283.933 311.2 282.6 310.667 281 310.667C277.667 310.667 260.867 304 260.2 302.4C259.933 301.733 258.6 301.333 257.133 301.333C255.8 301.333 254.6 300.667 254.6 300C254.6 299.2 253.4 298.667 251.933 298.667C250.467 298.667 249.267 298 249.267 297.333C249.267 296.533 248.467 296 247.533 296C246.6 296 243.533 293.867 240.867 291.333C238.2 288.8 235.667 286.667 235.267 286.667C234.333 286.667 227.933 280.4 227.933 279.467C227.933 279.067 225.267 275.867 221.933 272.4C218.6 269.067 215.933 265.333 215.933 264.4C215.933 263.467 215.4 262.667 214.6 262.667C213.933 262.667 213.267 261.467 213.267 260C213.267 258.533 212.733 257.333 211.933 257.333C211.267 257.333 210.6 256.533 210.6 255.467C210.6 254.4 209.8 252.667 208.867 251.733C207 249.733 203.933 241.467 203.933 238.267C203.933 237.067 203.4 236 202.6 236C201.933 236 201.267 233.867 201.267 231.333C201.267 228.8 200.733 226.667 199.933 226.667C199.267 226.667 198.6 224.267 198.6 221.2C198.6 218.267 197.933 214.667 197.133 213.2C195.4 209.733 195.4 172 197.267 170.133C197.933 169.467 198.6 165.6 198.6 161.733C198.6 157.867 199.267 154.667 199.933 154.667C200.733 154.667 201.267 153.2 201.267 151.333C201.267 149.467 201.8 146.933 202.333 145.6C209.533 130.8 211.133 128 212.067 128C212.733 128 213.267 127.067 213.267 125.867C213.267 124.667 214.467 122.533 216.067 121.2C217.533 119.867 218.6 117.733 218.333 116.4C217.933 114.267 216.2 114 203.533 113.6C195.667 113.467 189.267 113.733 189.267 114.4C189.267 115.6 183.533 118.667 181.267 118.667C179.267 118.667 179.667 113.733 181.933 111.467C183 110.4 183.933 108.533 183.933 107.467C183.933 106.267 184.6 105.333 185.267 105.333C186.067 105.333 186.6 104.667 186.6 103.867C186.6 102.133 189.8 99.0667 196.6 94.5334C202.2 90.6667 203 85.3333 198.2 82.9333C193.133 80.4 179.133 77.3333 172.467 77.3333C165 77.3333 145.267 81.4667 145.267 82.9333C145.267 83.6 143.8 84 141.933 84C140.067 84 138.6 84.5334 138.6 85.3333C138.6 86 137.4 86.6667 135.933 86.6667C133.533 86.6667 133.267 85.7333 133.267 79.3333V72H128.6C126.067 72 123.933 72.5334 123.933 73.3333C123.933 74 122.733 74.6667 121.267 74.6667C118.333 74.6667 117.133 75.4667 109.933 82.2667C107.4 84.6667 104.733 86.6667 103.933 86.6667C103.267 86.6667 102.6 87.0667 102.6 87.6C102.6 88.2667 100.733 89.8667 98.6 91.3333C96.4667 92.8 94.6 94.4 94.6 95.0667C94.6 95.6 92.4667 98.1334 89.9333 100.533C87.4 103.067 85.2667 105.6 85.2667 106.267C85.2667 106.933 84.0667 108.267 82.6 109.333C81.1333 110.4 79.9333 111.867 79.9333 112.667C79.9333 113.467 77.8 116.4 75.2667 119.067C72.7333 121.733 70.6 124.933 70.6 126C70.6 127.067 70.0667 128 69.2667 128C68.6 128 67.9333 128.8 67.9333 129.867C67.9333 131.467 59.5333 147.467 57.8 149.2C57.5333 149.467 55.4 147.6 53.1333 144.933C49 140.133 44.0667 138.667 40.4667 141.067C37.5333 142.933 31.9333 152.4 31.9333 155.467C31.9333 157.2 31.4 158.667 30.6 158.667C29.9333 158.667 29.2667 161.067 29.2667 164C29.2667 166.933 28.7333 169.333 28.0667 169.333C27.4 169.333 26.4667 172.533 26.0667 176.267C25.6667 180.133 24.4667 190.8 23.2667 200C21.6667 212 21.2667 223.2 21.8 239.6C22.0667 253.067 21.8 262.667 21.1333 262.667C20.4667 262.667 19.9333 262 19.9333 261.333C19.9333 260.533 19 260 17.8 260C16.7333 260 14.8667 259.067 13.8 258C12.6 256.933 9.66667 256 7.13333 256C3 256 2.6 256.4 2.6 260C2.6 262.133 1.8 265.467 1 267.467C-0.333333 270.4 -0.333333 271.2 1 271.733C2.06667 272 2.6 275.2 2.6 280.8C2.6 285.6 3.13333 289.333 3.93333 289.333C4.73333 289.333 5.26667 292 5.26667 295.333C5.26667 298.667 5.93333 301.333 6.6 301.333C7.4 301.333 7.93333 302.667 7.93333 304.267C8.06667 306 8.86667 308.8 9.93333 310.667C11 312.533 11.8 315.6 11.9333 317.6C11.9333 319.733 12.6 321.333 13.2667 321.333C14.0667 321.333 14.6 322.8 14.6 324.667C14.6 326.533 15.2667 328 15.9333 328C16.7333 328 17.2667 330.133 17.2667 332.667C17.2667 335.2 17.9333 337.333 18.6 337.333C19.4 337.333 19.9333 338.533 19.9333 340C19.9333 341.467 20.4667 342.667 21.2667 342.667C21.9333 342.667 22.8667 344.8 23.4 347.333C23.8 349.867 24.7333 352 25.4 352C26.0667 352 26.6 353.2 26.6 354.667C26.6 356.133 27.2667 357.333 27.9333 357.333C28.7333 357.333 29.2667 358.533 29.2667 359.867C29.2667 361.333 29.6667 362.667 30.3333 362.933C31.5333 363.467 37.1333 373.067 38.2 376.267C38.6 377.6 39.4 378.667 40.0667 378.667C40.7333 378.667 41.2667 379.6 41.2667 380.667C41.2667 381.733 41.9333 382.667 42.6 382.667C43.4 382.667 43.9333 383.867 43.9333 385.2C43.9333 386.667 44.7333 388.133 45.6667 388.533C46.8667 389.2 46.8667 389.467 45.6667 390.133C44.7333 390.533 43.9333 391.733 43.9333 392.8C43.9333 393.867 43.4 394.667 42.6 394.667C41.8 394.667 41.2667 398.267 41.2667 402.667C41.2667 407.067 41.8 410.667 42.6 410.667C43.4 410.667 43.9333 412.133 43.9333 414C43.9333 415.867 44.4667 417.333 45.1333 417.333C45.8 417.333 46.7333 418.4 47.2667 419.867C47.6667 421.2 49.8 424.267 51.9333 426.533C54.2 428.8 55.9333 431.333 55.9333 432.133C55.9333 432.933 59.2667 436.8 63.2667 440.667C67.2667 444.667 70.6 448.4 70.6 449.2C70.6 450 71.2667 450.667 71.9333 450.667C72.7333 450.667 75.9333 453.2 79.2667 456.267C86.2 463.067 88.8667 465.333 89.8 465.333C90.2 465.333 93.4 468 96.8667 471.333C100.2 474.667 103.667 477.333 104.333 477.333C105 477.333 106.6 478.4 107.8 479.733C109 481.067 111.933 483.333 114.2 484.667C116.6 486.133 118.6 487.733 118.6 488.267C118.6 488.8 119.8 489.333 121.267 489.333C122.733 489.333 123.933 489.867 123.933 490.667C123.933 491.333 124.467 492 125.133 492C125.8 492 127.4 488.133 128.733 483.333C130.067 478.533 131.667 474.667 132.2 474.667C132.867 474.667 133.267 473.2 133.267 471.333C133.267 465.467 135.667 467.733 136.333 474.267C137.8 487.333 139.667 496.933 141.133 499.733C141.933 501.2 142.6 504 142.6 505.867C142.6 507.733 143.267 509.333 143.933 509.333C144.733 509.333 145.267 510.8 145.267 512.667C145.267 514.533 145.933 516 146.6 516C147.4 516 147.933 518.133 147.933 520.667C147.933 526 146.467 526.4 137.933 523.333C135 522.267 130.067 521.467 127 521.333C123.8 521.333 121.267 520.667 121.267 520C121.267 519.2 117.933 518.667 113.933 518.667C109.933 518.667 106.6 518 106.6 517.333C106.6 516.533 103.267 516 99.2667 516C95.2667 516 91.9333 515.467 91.9333 514.8C91.9333 514.133 89.6667 513.333 87 512.933C75.5333 511.2 65.8 509.067 64.7333 507.867C63.1333 506.4 58.6 506.267 58.6 507.733C58.6 509.333 71 516 73.8 516C75 516 75.9333 516.533 75.9333 517.333C75.9333 518 77.4 518.667 79.2667 518.667C81.1333 518.667 82.6 519.2 82.6 520C82.6 520.667 83.8 521.333 85.2667 521.333C86.7333 521.333 87.9333 521.867 87.9333 522.667C87.9333 523.333 89.4 524.267 91.2667 524.8C93.1333 525.2 94.6 526.133 94.6 526.8C94.6 527.467 96.0667 528 97.9333 528C99.8 528 101.267 528.533 101.267 529.333C101.267 530 103.133 530.667 105.267 530.667C107.533 530.667 109.267 531.2 109.267 532C109.267 532.667 110.067 533.333 111.133 533.333C112.2 533.333 115 534.4 117.533 535.6C125.533 539.6 126.6 540 128.6 540C129.667 540 130.6 540.533 130.6 541.333C130.6 542 132.467 542.667 134.6 542.667C136.867 542.667 138.6 543.2 138.6 544C138.6 544.667 140.733 545.333 143.267 545.333C145.8 545.333 147.933 545.867 147.933 546.667C147.933 547.333 149 548 150.333 548C151.667 548 153.933 548.933 155.4 550C156.733 551.067 159.533 552 161.667 552C163.667 552 165.267 552.533 165.267 553.333C165.267 554 167.4 554.667 169.933 554.667C172.467 554.667 174.6 555.2 174.6 556C174.6 556.667 176.733 557.333 179.267 557.333C181.8 557.333 183.933 557.733 183.933 558.4C183.933 559.467 193.933 562.4 201.667 563.6C204.333 564 206.6 564.8 206.6 565.467C206.6 566.133 209.267 566.667 212.6 566.667C215.933 566.667 218.6 567.2 218.6 568C218.6 568.667 221.267 569.333 224.467 569.333C227.8 569.333 230.867 569.867 231.267 570.667C231.667 571.333 234.2 572 236.733 572C239.4 572 242.6 572.667 244.067 573.333C245.4 574.133 250.467 575.067 255.267 575.6C260.067 576 263.933 576.933 263.933 577.467C263.933 578.133 268.467 578.667 273.933 578.667C279.667 578.667 283.933 579.2 283.933 580C283.933 580.8 289.133 581.333 297 581.333C304.2 581.333 310.733 582 311.4 582.667C312.333 583.6 329.133 583.867 361.4 583.467C416.733 582.667 438.6 581.733 438.6 579.867C438.6 579.2 442.2 578.667 446.6 578.667C451 578.667 455.667 578.133 457 577.467C459.4 576.133 472.733 573.6 483 572.4C486.467 572 489.267 571.2 489.267 570.533C489.267 569.867 491.933 569.333 495.267 569.333C498.6 569.333 501.267 568.667 501.267 568C501.267 567.2 503.267 566.667 505.8 566.667C508.333 566.667 510.867 566 511.267 565.333C511.667 564.533 513.667 564 515.667 564C517.667 563.867 520.733 563.067 522.6 562C524.467 560.933 527.533 560.133 529.533 560C531.533 560 533.533 559.467 533.933 558.667C534.333 558 536.467 557.333 538.733 557.333C540.867 557.333 542.6 556.667 542.6 556C542.6 555.2 544.067 554.667 545.933 554.667C547.8 554.667 549.267 554 549.267 553.333C549.267 552.533 551 552 553 552C555.133 552 557.933 551.067 559.4 550C560.733 548.933 563 548 564.333 548C565.533 548 566.6 547.333 566.6 546.667C566.6 545.867 568.467 545.333 570.6 545.333C572.867 545.333 574.6 544.667 574.6 544C574.6 543.2 576.067 542.667 577.933 542.667C579.8 542.667 581.267 542 581.267 541.333C581.267 540.533 582.2 540 583.533 540C586.467 540 595.933 535.733 595.933 534.4C595.933 533.867 597.4 533.333 599.267 533.333C601.133 533.333 602.6 532.667 602.6 532C602.6 531.2 603.8 530.667 605.267 530.667C606.733 530.667 607.933 530 607.933 529.333C607.933 528.533 609.4 528 611.267 528C613.133 528 614.6 527.467 614.6 526.8C614.6 526.133 617.267 524.533 620.6 523.067C623.933 521.733 626.6 520.267 626.6 519.6C626.6 519.067 627.8 518.667 629.267 518.667C630.733 518.667 631.933 518 631.933 517.333C631.933 516.533 633.133 516 634.6 516C636.067 516 637.267 515.333 637.267 514.667C637.267 513.867 637.933 513.333 638.733 513.333C639.533 513.333 641 512.533 641.933 511.6C646.6 507.467 647.933 506.667 649.933 506.667C651 506.667 651.933 506 651.933 505.333C651.933 504.533 652.867 504 653.933 504C655 504 655.933 503.333 655.933 502.667C655.933 501.867 656.867 501.333 658.067 501.333C659.267 501.333 661.667 499.867 663.4 498C665.133 496.133 667.4 494.667 668.6 494.667C669.667 494.667 670.6 494 670.6 493.333C670.6 492.533 669.4 492 667.933 492C666.467 492 665.267 492.533 665.267 493.333C665.267 494 663.933 494.667 662.2 494.667C660.6 494.667 658.067 495.467 656.6 496.4C655.133 497.467 651.133 499.067 647.667 500.133C644.067 501.067 641.267 502.4 641.267 502.933C641.267 503.467 639.133 504 636.6 504C634.067 504 631.933 504.533 631.933 505.333C631.933 506 630.2 506.667 628.067 506.667C625.8 506.667 623.8 507.2 623.4 507.867C622.867 508.533 620.2 509.467 617.267 510C614.333 510.533 611.667 511.467 611.133 512.133C610.733 512.8 608.467 513.333 605.933 513.333C603.4 513.333 601 513.867 600.6 514.667C600.2 515.333 597.667 516 595.133 516C592.6 516 590.6 516.533 590.6 517.333C590.6 518 587.933 518.667 584.6 518.667C581.267 518.667 578.6 519.2 578.6 519.867C578.6 520.533 576.333 521.333 573.667 521.6C570.867 522 567.533 522.667 566.333 523.2C562.733 524.8 563.267 520.533 567.133 516.667C568.867 514.933 571.667 510.8 573.4 507.333C575 504 576.867 501.333 577.533 501.333C578.067 501.333 578.6 500.4 578.6 499.333C578.6 498.267 579.133 497.333 579.8 497.333C580.467 497.333 581.267 495.467 581.8 493.333C582.6 488.8 585.933 488 587.267 492C587.667 493.467 588.733 494.667 589.4 494.667C590.067 494.667 590.6 496.8 590.6 499.333C590.6 503.067 591.133 504 593.267 504C594.733 504 595.933 503.2 595.933 502.267C595.933 501.333 597.4 499.067 599.267 497.067C601.133 495.067 602.6 492.533 602.6 491.333C602.6 490.267 603.267 489.333 603.933 489.333C604.733 489.333 605.267 488.4 605.267 487.333C605.267 486.267 605.933 485.333 606.6 485.333C607.4 485.333 607.933 484.133 607.933 482.667C607.933 481.2 608.6 480 609.267 480C610.067 480 610.6 478.933 610.6 477.6C610.6 476.4 611.533 474.133 612.6 472.8C613.667 471.333 614.6 469.067 614.6 467.733C614.6 466.4 615.267 465.333 615.933 465.333C616.733 465.333 617.267 463.2 617.267 460.667C617.267 458.133 617.933 456 618.6 456C619.4 456 619.933 453.333 619.933 450C619.933 446.667 620.6 444 621.267 444C622.067 444 622.6 441.067 622.6 437.6C622.6 434.133 623.133 430.667 623.933 429.867C624.6 429.2 625.933 414 626.867 396.267C627.8 378.533 629 364 629.667 364C630.333 364 633.533 366.667 636.867 370C643.4 376.667 643.933 376.933 643.933 374C643.933 372.933 644.6 372 645.267 372C646.067 372 646.6 365.333 646.6 354.667C646.6 344 646.067 337.333 645.267 337.333C644.6 337.333 643.933 334.133 643.933 330.133C643.933 326.133 643.4 322.4 642.6 322C641.933 321.6 641.267 319.6 641.267 317.6C641.133 315.6 640.333 312.533 639.267 310.667C638.2 308.8 637.4 306 637.267 304.267C637.267 302.667 636.733 301.333 635.933 301.333C635.267 301.333 634.6 299.467 634.6 297.333C634.6 295.067 634.067 293.333 633.267 293.333C632.6 293.333 631.933 291.867 631.933 290C631.933 288.133 631.4 286.667 630.6 286.667C629.933 286.667 629.267 285.333 629.267 283.6C629.267 282 627.8 278 625.933 274.8C624.067 271.733 622.6 268.267 622.6 267.2C622.6 266.133 622.067 265.333 621.267 265.333C620.6 265.333 619.933 263.867 619.933 262C619.933 260.133 619.4 258.667 618.6 258.667C617.933 258.667 617.267 257.467 617.267 256C617.267 254.533 616.733 253.333 616.067 253.333C615.4 253.333 613.133 249.333 611.133 244.267C609 239.333 606.867 235.067 606.333 234.933C605.667 234.667 605.267 233.6 605.267 232.533C605.267 230.267 598.333 215.467 597 214.933C596.333 214.667 595.933 212.933 595.933 211.2C595.933 209.467 595.4 208 594.6 208C593.933 208 593.267 206.133 593.267 204C593.267 201.733 592.733 200 591.933 200C591.267 200 590.6 198.8 590.6 197.2C590.6 195.733 589.933 193.333 589.133 191.867C588.333 190.4 587.133 184.533 586.467 178.933C583.8 157.333 584.467 158.667 577.8 158.667C572.333 158.667 567 156.4 563.267 152.667C560.467 149.867 557.267 144 558.6 144C559.267 144 559.933 144.533 559.933 145.333C559.933 146 560.733 146.667 561.667 146.667C562.6 146.667 564.2 147.867 565.267 149.333C566.333 150.8 568.2 152 569.533 152C570.867 152 571.933 152.533 571.933 153.333C571.933 154 574.6 154.667 577.8 154.667C581.133 154.667 584.2 154 584.6 153.333C585 152.533 586.6 152 588.067 152C589.4 152 590.6 151.333 590.6 150.667C590.6 149.867 591.667 149.333 593 149.333C594.2 149.333 595.933 147.733 596.867 145.6C600.067 138.4 602.6 130 602.6 126.667C602.6 122 598.2 104.8 596.733 103.733C594.333 102 599.8 98.6667 605.133 98.6667C608.067 98.6667 610.867 98 611.267 97.3333C611.667 96.5334 617.133 96 623.4 96C632.467 96 634.6 95.6 634.6 94C634.6 92.9333 634.067 92 633.267 92C632.6 92 631.933 91.0667 631.933 89.8667C631.933 88.8 631.133 87.0667 630.333 86C629.4 85.0667 627.4 82.6667 626.067 80.8C624.733 78.9333 623 77.3333 622.333 77.3333C619 77.3333 617.267 73.2 617.267 64.6667C617.267 56.2667 614.333 44 611.533 40.2667C610.867 39.4667 609.133 38.6667 607.8 38.6667C605.8 38.6667 605.267 37.7333 605.267 34C605.267 31.4667 604.733 29.3334 603.933 29.3334C603.267 29.3334 602.6 28.1334 602.6 26.6667C602.6 25.2 601.667 24 600.6 24C599.533 24 598.6 24.5334 598.6 25.3334C598.6 26.0001 598.067 26.6667 597.267 26.6667C596.6 26.6667 595.933 25.2 595.933 23.3334C595.933 21.4667 595.4 20 594.6 20C593.933 20 593.267 18.1334 593.267 16C593.267 11.0667 592.467 11.0667 588.6 15.4667L585.667 18.9333L583.4 14.6667C582.2 12.2667 581.267 9.20001 581.267 8C581.267 3.33331 574.733 3.73334 574.6 8.26666C574.6 8.93335 573.4 9.33337 571.933 9.33337C569.933 9.33337 569.267 8.40002 569.267 6C569.267 3.59998 568.6 2.66669 566.6 2.66669C565.133 2.66669 563.933 3.60004 563.933 4.66669C563.933 7.8667 561.267 6.93335 559.933 3.33337C559.133 1.06671 557.667 0 555.667 0C553.267 0 551.933 1.46674 549.533 7.06671ZM365.667 432.267C368.067 433.867 370.6 435.867 371.533 436.667C376.467 440.8 377.267 441.333 378.6 441.333C379.267 441.333 379.933 442.533 379.933 443.867C379.933 445.333 381.133 446.933 382.6 447.333C384.067 447.733 385.267 449.067 385.267 450C385.267 451.067 387.4 454.133 389.933 456.8C392.467 459.333 394.6 462.4 394.6 463.467C394.6 464.533 395.267 465.333 395.933 465.333C396.733 465.333 397.267 466.533 397.267 468C397.267 469.467 397.933 470.667 398.6 470.667C399.4 470.667 399.933 472.133 399.933 474C399.933 475.867 400.467 477.333 401 477.333C403.533 477.333 406.6 492.533 406.6 504.667C406.6 515.333 406.067 518.4 403 525.6C401 530.267 397.4 536 395 538.267L390.733 542.667H357.267C329.933 542.667 323.4 542.267 321.8 540.8C320.733 539.733 319.933 538.267 319.933 537.467C319.933 536.667 319.4 536 318.6 536C317.933 536 317.267 534.8 317.267 533.333C317.267 531.867 316.733 530.667 315.933 530.667C315.267 530.667 314.6 529.6 314.6 528.267C314.6 526.933 313.933 525.2 313 524.267C307.933 519.2 307.8 489.6 312.733 479.733C313.8 477.733 314.6 474.933 314.6 473.333C314.6 471.867 315.267 470.667 315.933 470.667C316.733 470.667 317.267 469.2 317.267 467.333C317.267 465.467 317.933 464 318.6 464C319.4 464 319.933 462.8 319.933 461.333C319.933 459.867 320.6 458.667 321.267 458.667C322.067 458.667 322.6 457.733 322.6 456.533C322.6 455.467 323.4 453.6 324.333 452.667C327.8 448.667 329.267 446.8 329.267 446C329.267 444.267 342.6 432 344.467 432C345.667 432 346.6 431.333 346.6 430.667C346.6 429.867 349.933 429.333 354.067 429.333C359.667 429.333 362.6 430.133 365.667 432.267ZM275.933 452C275.933 452.667 278.6 453.333 281.933 453.333C285.267 453.333 287.933 453.867 287.933 454.667C287.933 455.333 289.267 456 290.867 456C292.6 456 297.4 457.6 301.533 459.6L309.267 463.333L308.467 468.667C307.933 471.6 307.133 474.133 306.467 474.4C305.8 474.667 305.267 477.6 305.267 480.8C305.267 484 304.733 486.667 303.933 486.667C303.133 486.667 302.6 493.333 302.6 504C302.6 514.667 303.133 521.333 303.933 521.333C304.733 521.333 305.267 523.467 305.267 526C305.267 528.533 305.933 530.667 306.6 530.667C307.4 530.667 307.933 531.733 307.933 533.2C307.933 534.533 308.867 536.4 309.933 537.333C311 538.267 311.933 539.867 311.933 540.8C311.933 542.267 309.133 542.667 299.267 542.667C291.667 542.667 286.6 542.133 286.6 541.333C286.6 540.533 279.933 540 269.4 540C254.067 540 251.933 539.733 248.733 537.2C246.867 535.733 245.267 533.733 245.267 532.8C245.267 532 244.067 530.4 242.6 529.333C241.133 528.267 239.933 526.4 239.933 525.067C239.933 523.733 239.4 522.667 238.6 522.667C237.933 522.667 237.267 521.2 237.267 519.333C237.267 517.467 236.733 516 236.067 516C234.6 516 230.6 505.467 230.6 501.6C230.6 500 230.067 498.667 229.267 498.667C228.467 498.667 227.933 495.067 227.933 490.667C227.933 486.267 227.4 482.667 226.6 482.667C225.933 482.667 225.267 480.267 225.267 477.333C225.267 474.4 225.933 472 226.6 472C227.4 472 227.933 470.133 227.933 467.867C227.933 462.4 236.6 453.333 241.8 453.333C243.667 453.333 245.267 452.667 245.267 452C245.267 451.2 251.267 450.667 260.6 450.667C269.933 450.667 275.933 451.2 275.933 452ZM470.1 467C471.1 467.5 472.467 468 474.6 468C476.867 468 479.667 468.533 481 469.2C482.2 469.867 485.8 471.467 488.867 472.8C492.067 474.267 494.6 475.733 494.6 476.267C494.6 476.933 495.267 477.333 496.067 477.333C497.8 477.333 501.267 480.667 501.267 482.4C501.267 483.2 501.933 484 502.733 484.267C504.733 484.933 504.6 503.067 502.733 503.733C501.933 504 501.267 505.333 501.267 506.8C501.267 508.133 500.733 509.333 499.933 509.333C499.267 509.333 498.6 510 498.6 510.8C498.6 511.6 497.8 513.067 497 514C493.4 518 491.933 519.867 491.933 520.667C491.933 521.067 490.6 522.933 489 524.8C476.867 538.133 472.333 540 452.333 540C444.067 540 438.6 540.533 438.6 541.333C438.6 543.6 413.4 543.067 411.133 540.8C409.133 538.667 408.467 528 410.467 528C413 528 415.667 497.867 413.4 495.6C412.6 494.8 411.933 491.6 411.933 488.533C411.933 485.333 411.267 482.667 410.333 482.4C406.2 480.933 424.6 468 430.733 468C432.067 468 433.267 467.333 433.267 466.667C433.267 465.867 440.333 465.333 451.933 465.333C463.533 465.333 469.099 466.333 470.1 467Z" fill="#993E3A" fill-opacity="0.19"/>
</svg>
