<svg width="645" height="804" viewBox="0 0 645 804" fill="none" xmlns="http://www.w3.org/2000/svg">
<path d="M380.265 442.588C343.16 420.939 323.155 346.415 338.057 308.316C354.522 266.243 457.472 272.634 469.285 282.893C481.098 293.151 384.523 325.98 397.701 364.692C412.337 407.661 485.83 407.72 483.829 426.068C481.862 444.121 423.155 467.61 380.265 442.588Z" stroke="#D0AFAD" stroke-width="3" stroke-miterlimit="10"/>
<path d="M368.649 447.882C325.157 429.016 306.286 338.809 325.458 296.311C347.186 248.177 459.034 266.018 475.637 273.636C489.95 280.192 397.042 324.34 408.149 371.118C420.205 421.941 486.49 430.195 481.538 441.987C476.216 454.627 419.684 469.968 368.649 447.882Z" stroke="#D0AFAD" stroke-width="3" stroke-miterlimit="10"/>
<path d="M357.033 453.165C307.224 437.14 289.452 331.214 312.859 284.319C339.898 230.077 459.706 259.556 481.99 264.367C498.188 267.905 409.642 322.642 418.586 377.568C428.131 436.149 488.643 453.33 479.248 457.822C472.237 465.782 416.399 472.279 357.033 453.165Z" stroke="#D0AFAD" stroke-width="3" stroke-miterlimit="10"/>
<path d="M345.416 458.495C289.325 445.193 272.652 323.668 300.293 272.35C332.689 212.118 461.962 244.581 488.376 255.134C504.922 261.749 422.323 320.967 429.057 384.006C436.149 450.346 490.077 476.147 476.991 473.706C467.423 476.618 413.101 474.52 345.416 458.495Z" stroke="#D0AFAD" stroke-width="3" stroke-miterlimit="10"/>
<path d="M333.799 463.754C271.448 453.141 255.875 316.074 287.658 260.311C325.422 194.041 461.209 237.459 494.693 245.842C513.483 250.559 434.968 319.211 439.469 390.397C444.097 464.497 492.691 495.945 474.665 489.542C463.118 485.451 409.826 476.701 333.799 463.754Z" stroke="#D0AFAD" stroke-width="3" stroke-miterlimit="10"/>
<path d="M322.196 469.048C253.573 461.065 239.111 308.504 275.059 248.319C318.227 176.024 460.666 242.965 501.058 236.527C521.988 233.214 447.696 317.442 449.918 396.789C452.232 478.623 494.463 519.317 472.375 505.355C458.63 496.724 406.565 478.847 322.196 469.048Z" stroke="#D0AFAD" stroke-width="3" stroke-miterlimit="10"/>
<path d="M310.58 474.331C235.698 468.977 222.358 300.992 262.448 236.315C311.043 158.017 461.165 238.107 507.399 227.318C530.018 222.035 460.413 315.756 460.343 403.262C460.274 492.879 495.863 542.64 470.074 521.274C453.899 507.867 403.303 480.97 310.58 474.331Z" stroke="#D0AFAD" stroke-width="3" stroke-miterlimit="10"/>
<path d="M298.961 479.625C217.82 476.866 205.637 293.41 249.846 224.311C303.832 140.011 461.787 233.426 513.749 218.049C538.115 210.844 473.161 314.058 470.789 409.689C468.371 507.041 497.169 565.776 467.781 537.134C449.083 518.927 400.015 483.057 298.961 479.625Z" stroke="#D0AFAD" stroke-width="3" stroke-miterlimit="10"/>
<path d="M287.346 484.92C199.946 484.743 188.861 285.864 237.248 212.307C296.648 122.006 462.517 228.815 520.102 208.769C546.273 199.654 485.924 312.324 481.226 416.104C476.471 521.215 498.454 588.805 465.491 552.994C444.225 529.917 396.764 485.132 287.346 484.92Z" stroke="#D0AFAD" stroke-width="3" stroke-miterlimit="10"/>
<path d="M275.729 490.203C182.012 492.561 172.119 278.329 224.647 200.314C289.44 104.023 463.338 224.334 526.453 199.524C554.476 188.511 498.685 310.626 491.662 422.542C484.581 535.412 499.761 611.811 463.188 568.877C439.354 540.872 393.49 487.184 275.729 490.203Z" stroke="#D0AFAD" stroke-width="3" stroke-miterlimit="10"/>
<path d="M264.113 495.497C164.171 500.461 155.354 270.794 212.048 188.31C282.301 86.0289 464.276 219.865 532.805 190.256C562.714 177.356 511.47 308.916 502.11 428.968C492.703 549.609 501.022 634.758 460.897 584.737C434.471 551.803 390.204 489.224 264.113 495.497Z" stroke="#D0AFAD" stroke-width="3" stroke-miterlimit="10"/>
<path d="M252.496 500.792C146.283 508.315 138.658 263.259 199.447 176.307C275.139 68.0469 465.166 215.432 539.157 181.024C570.963 166.213 524.243 307.195 512.546 435.43C500.825 563.831 502.306 657.716 458.606 600.633C429.6 562.722 386.918 491.264 252.496 500.792Z" stroke="#D0AFAD" stroke-width="3" stroke-miterlimit="10"/>
<path d="M240.881 506.075C128.385 516.157 121.929 255.677 186.849 164.315C267.978 50.0644 466.151 211.01 545.522 171.732C579.26 155.034 537.041 305.509 522.995 441.833C508.949 578.157 503.592 680.604 456.316 616.504C424.719 573.629 383.633 493.281 240.881 506.075Z" stroke="#D0AFAD" stroke-width="3" stroke-miterlimit="10"/>
<path d="M229.265 511.369C110.487 523.998 105.199 248.201 174.238 152.311C260.817 32.0349 467.181 206.553 551.863 162.463C587.556 143.868 549.826 303.811 533.431 448.26C517.083 592.202 504.888 703.492 454.014 632.341C419.836 584.525 380.348 495.309 229.265 511.369Z" stroke="#D0AFAD" stroke-width="3" stroke-miterlimit="10"/>
<path d="M217.647 516.663C92.5857 531.839 88.6518 240.807 161.671 140.306C253.919 14.2762 468.278 202.213 558.247 153.206C595.896 132.701 562.655 302.113 543.9 454.686C525.249 606.398 506.216 726.391 451.756 648.212C414.952 595.42 377.036 497.313 217.647 516.663Z" stroke="#D0AFAD" stroke-width="3" stroke-miterlimit="10"/>
<path d="M206.032 521.946C74.6882 539.669 71.9114 233.273 149.038 128.326C246.701 -3.74144 469.309 197.897 564.566 143.962C604.193 121.558 575.419 300.438 554.303 461.16C533.361 620.655 507.479 749.315 449.432 664.131C410.07 606.316 373.74 499.33 206.032 521.946Z" stroke="#D0AFAD" stroke-width="3" stroke-miterlimit="10"/>
<path d="M197.636 528.002C59.9518 548.26 58.3783 226.487 139.658 117.071C242.736 -20.892 473.617 194.201 574.138 135.443C615.791 111.117 591.713 299.513 567.96 468.312C544.993 635.613 511.995 772.916 450.361 680.705C408.408 617.961 373.652 502.095 197.636 528.002Z" stroke="#D0AFAD" stroke-width="3" stroke-miterlimit="10"/>
<path d="M182.8 532.535C38.8331 555.069 38.4051 218.179 123.839 104.306C232.331 -39.7185 471.508 189.053 577.282 125.413C620.867 99.1883 601.232 297.054 575.188 473.977C549.861 649.049 510.071 795.019 444.839 695.815C400.306 628.083 367.077 503.008 182.8 532.535Z" stroke="#D0AFAD" stroke-width="3" stroke-miterlimit="10"/>
<path d="M171.181 537.818C20.9321 562.958 21.6726 210.644 111.237 92.3024C225.133 -57.7121 472.628 184.679 583.632 116.145C629.207 88.0102 613.98 295.38 585.622 480.404C557.946 663.247 511.377 817.895 442.546 711.675C395.387 638.908 363.777 505.084 171.181 537.818Z" stroke="#D0AFAD" stroke-width="3" stroke-miterlimit="10"/>
<path d="M159.565 543.112C3.03368 570.846 4.90803 203.097 98.6373 80.3099C217.948 -75.6712 473.774 180.292 589.984 106.889C637.561 76.8314 626.789 293.646 596.059 486.795C565.976 677.408 512.488 840.854 440.256 727.511C390.4 649.934 360.48 507.171 159.565 543.112Z" stroke="#D0AFAD" stroke-width="3" stroke-miterlimit="10"/>
<path d="M147.95 548.407C-14.8639 578.771 -11.8789 195.539 86.0388 68.3061C210.764 -93.7007 474.921 175.906 596.338 97.6675C645.927 65.6883 639.483 291.995 606.508 493.304C574.123 691.653 513.889 863.683 437.966 743.419C385.589 660.759 357.207 509.199 147.95 548.407Z" stroke="#D0AFAD" stroke-width="3" stroke-miterlimit="10"/>
<path d="M435.663 759.279C380.775 671.595 353.874 511.334 136.333 553.69C-32.7752 586.624 -28.5984 188.016 73.4267 56.3022C203.579 -111.707 476.066 171.519 602.689 88.3639C705.084 21.1038 596.175 1015.71 435.663 759.279Z" stroke="#D0AFAD" stroke-width="3" stroke-miterlimit="10"/>
</svg>
