<svg width="15" height="24" viewBox="0 0 15 24" fill="none" xmlns="http://www.w3.org/2000/svg">
<path d="M7.33846 21.325C8.58846 20.1417 9.56779 19.0043 10.2765 17.913C10.9845 16.821 11.3385 15.9 11.3385 15.15C11.3385 14 10.9468 13.0207 10.1635 12.212C9.38013 11.404 8.43846 11 7.33846 11C6.23846 11 5.29679 11.404 4.51346 12.212C3.73013 13.0207 3.33846 14 3.33846 15.15C3.33846 15.9 3.69246 16.821 4.40046 17.913C5.10913 19.0043 6.08846 20.1417 7.33846 21.325ZM6.58846 23.35C4.82179 21.7833 3.50513 20.3167 2.63846 18.95C1.77179 17.5833 1.33846 16.3167 1.33846 15.15C1.33846 13.4333 1.92179 11.979 3.08846 10.787C4.25513 9.59567 5.67179 9 7.33846 9C9.00513 9 10.4218 9.59567 11.5885 10.787C12.7551 11.979 13.3385 13.4333 13.3385 15.15C13.3385 16.3167 12.9051 17.5833 12.0385 18.95C11.1718 20.3167 9.85513 21.7833 8.08846 23.35C7.88846 23.5333 7.63846 23.625 7.33846 23.625C7.03846 23.625 6.78846 23.5333 6.58846 23.35ZM7.33846 16.5C7.75513 16.5 8.10913 16.354 8.40046 16.062C8.69246 15.7707 8.83846 15.4167 8.83846 15C8.83846 14.5833 8.69246 14.2293 8.40046 13.938C8.10913 13.646 7.75513 13.5 7.33846 13.5C6.92179 13.5 6.56779 13.646 6.27646 13.938C5.98446 14.2293 5.83846 14.5833 5.83846 15C5.83846 15.4167 5.98446 15.7707 6.27646 16.062C6.56779 16.354 6.92179 16.5 7.33846 16.5ZM7.33846 6C6.83846 6 6.35113 6.06667 5.87646 6.2C5.40113 6.33333 4.95513 6.54167 4.53846 6.825C4.30513 6.975 4.05113 7.04567 3.77646 7.037C3.50113 7.029 3.27179 6.93333 3.08846 6.75C2.88846 6.55 2.79279 6.31667 2.80146 6.05C2.80946 5.78333 2.92179 5.56667 3.13846 5.4C3.73846 4.95 4.39679 4.604 5.11346 4.362C5.83013 4.12067 6.57179 4 7.33846 4C8.10513 4 8.8468 4.12067 9.56346 4.362C10.2801 4.604 10.9385 4.95 11.5385 5.4C11.7551 5.56667 11.8678 5.78333 11.8765 6.05C11.8845 6.31667 11.7885 6.55 11.5885 6.75C11.4051 6.93333 11.1758 7.029 10.9005 7.037C10.6258 7.04567 10.3718 6.975 10.1385 6.825C9.72179 6.54167 9.27613 6.33333 8.80146 6.2C8.32613 6.06667 7.83846 6 7.33846 6ZM7.33846 2C6.30513 2 5.31346 2.16667 4.36346 2.5C3.41346 2.83333 2.53846 3.31667 1.73846 3.95C1.52179 4.13333 1.27579 4.22067 1.00046 4.212C0.725795 4.204 0.488461 4.10833 0.288461 3.925C0.0884612 3.725 -0.00753846 3.48733 0.00046154 3.212C0.00912821 2.93733 0.121795 2.70833 0.338461 2.525C1.33846 1.70833 2.43013 1.08333 3.61346 0.65C4.79679 0.216667 6.03846 0 7.33846 0C8.63846 0 9.88013 0.216667 11.0635 0.65C12.2468 1.08333 13.3385 1.70833 14.3385 2.525C14.5551 2.70833 14.6718 2.93733 14.6885 3.212C14.7051 3.48733 14.6135 3.725 14.4135 3.925C14.2301 4.125 13.9968 4.229 13.7135 4.237C13.4301 4.24567 13.1801 4.15833 12.9635 3.975C12.1635 3.34167 11.2845 2.854 10.3265 2.512C9.36779 2.17067 8.37179 2 7.33846 2Z" fill="#848484"/>
</svg>
