<svg width="563" height="219" viewBox="0 0 563 219" fill="none" xmlns="http://www.w3.org/2000/svg">
<path d="M238.889 138.08C240.8 138.487 242.336 139.443 243.495 140.947C244.654 142.42 245.234 144.112 245.234 146.023C245.234 148.78 244.263 150.974 242.32 152.603C240.409 154.201 237.73 155 234.283 155H218.914V122.006H233.766C237.119 122.006 239.735 122.774 241.615 124.309C243.526 125.844 244.482 127.928 244.482 130.56C244.482 132.503 243.965 134.116 242.931 135.401C241.928 136.686 240.581 137.579 238.889 138.08ZM226.951 135.354H232.215C233.531 135.354 234.534 135.072 235.223 134.508C235.944 133.913 236.304 133.051 236.304 131.923C236.304 130.795 235.944 129.933 235.223 129.338C234.534 128.743 233.531 128.445 232.215 128.445H226.951V135.354ZM232.873 148.514C234.22 148.514 235.254 148.216 235.975 147.621C236.727 146.994 237.103 146.101 237.103 144.942C237.103 143.783 236.711 142.874 235.928 142.216C235.176 141.558 234.126 141.229 232.779 141.229H226.951V148.514H232.873ZM253.937 126.048C252.527 126.048 251.368 125.641 250.459 124.826C249.582 123.98 249.143 122.946 249.143 121.724C249.143 120.471 249.582 119.437 250.459 118.622C251.368 117.776 252.527 117.353 253.937 117.353C255.316 117.353 256.444 117.776 257.321 118.622C258.23 119.437 258.684 120.471 258.684 121.724C258.684 122.946 258.23 123.98 257.321 124.826C256.444 125.641 255.316 126.048 253.937 126.048ZM257.932 128.774V155H249.895V128.774H257.932ZM271.794 133.145C272.734 131.704 273.909 130.576 275.319 129.761C276.729 128.915 278.295 128.492 280.019 128.492V136.999H277.81C275.804 136.999 274.3 137.438 273.298 138.315C272.295 139.161 271.794 140.665 271.794 142.827V155H263.757V128.774H271.794V133.145ZM282.262 141.84C282.262 139.145 282.764 136.78 283.766 134.743C284.8 132.706 286.195 131.14 287.949 130.043C289.704 128.946 291.662 128.398 293.824 128.398C295.548 128.398 297.114 128.758 298.524 129.479C299.966 130.2 301.094 131.171 301.908 132.393V120.22H309.945V155H301.908V151.24C301.156 152.493 300.075 153.496 298.665 154.248C297.287 155 295.673 155.376 293.824 155.376C291.662 155.376 289.704 154.828 287.949 153.731C286.195 152.603 284.8 151.021 283.766 148.984C282.764 146.916 282.262 144.535 282.262 141.84ZM301.908 141.887C301.908 139.882 301.344 138.299 300.216 137.14C299.12 135.981 297.772 135.401 296.174 135.401C294.576 135.401 293.213 135.981 292.085 137.14C290.989 138.268 290.44 139.835 290.44 141.84C290.44 143.845 290.989 145.443 292.085 146.634C293.213 147.793 294.576 148.373 296.174 148.373C297.772 148.373 299.12 147.793 300.216 146.634C301.344 145.475 301.908 143.892 301.908 141.887ZM328.92 135.448H324.596V155H316.559V135.448H313.645V128.774H316.559V128.022C316.559 124.795 317.483 122.351 319.332 120.69C321.18 118.998 323.891 118.152 327.463 118.152C328.058 118.152 328.497 118.168 328.779 118.199V125.014C327.243 124.92 326.162 125.139 325.536 125.672C324.909 126.205 324.596 127.16 324.596 128.539V128.774H328.92V135.448ZM340.733 120.22V155H332.696V120.22H340.733ZM372.454 128.774V155H364.417V151.428C363.603 152.587 362.49 153.527 361.08 154.248C359.702 154.937 358.166 155.282 356.474 155.282C354.469 155.282 352.699 154.843 351.163 153.966C349.628 153.057 348.437 151.757 347.591 150.065C346.745 148.373 346.322 146.383 346.322 144.096V128.774H354.312V143.015C354.312 144.77 354.767 146.133 355.675 147.104C356.584 148.075 357.806 148.561 359.341 148.561C360.908 148.561 362.146 148.075 363.054 147.104C363.963 146.133 364.417 144.77 364.417 143.015V128.774H372.454ZM402.804 148.185V155H398.715C395.801 155 393.53 154.295 391.9 152.885C390.271 151.444 389.456 149.109 389.456 145.882V135.448H386.26V128.774H389.456V122.382H397.493V128.774H402.757V135.448H397.493V145.976C397.493 146.759 397.681 147.323 398.057 147.668C398.433 148.013 399.06 148.185 399.937 148.185H402.804ZM415.318 133.145C416.258 131.704 417.433 130.576 418.843 129.761C420.253 128.915 421.82 128.492 423.543 128.492V136.999H421.334C419.329 136.999 417.825 137.438 416.822 138.315C415.819 139.161 415.318 140.665 415.318 142.827V155H407.281V128.774H415.318V133.145ZM425.787 141.84C425.787 139.145 426.288 136.78 427.291 134.743C428.325 132.706 429.719 131.14 431.474 130.043C433.228 128.946 435.187 128.398 437.349 128.398C439.197 128.398 440.811 128.774 442.19 129.526C443.6 130.278 444.681 131.265 445.433 132.487V128.774H453.47V155H445.433V151.287C444.649 152.509 443.553 153.496 442.143 154.248C440.764 155 439.15 155.376 437.302 155.376C435.171 155.376 433.228 154.828 431.474 153.731C429.719 152.603 428.325 151.021 427.291 148.984C426.288 146.916 425.787 144.535 425.787 141.84ZM445.433 141.887C445.433 139.882 444.869 138.299 443.741 137.14C442.644 135.981 441.297 135.401 439.699 135.401C438.101 135.401 436.738 135.981 435.61 137.14C434.513 138.268 433.965 139.835 433.965 141.84C433.965 143.845 434.513 145.443 435.61 146.634C436.738 147.793 438.101 148.373 439.699 148.373C441.297 148.373 442.644 147.793 443.741 146.634C444.869 145.475 445.433 143.892 445.433 141.887ZM457.686 141.887C457.686 139.161 458.234 136.78 459.331 134.743C460.459 132.706 462.01 131.14 463.984 130.043C465.989 128.946 468.277 128.398 470.846 128.398C474.136 128.398 476.878 129.26 479.071 130.983C481.296 132.706 482.753 135.135 483.442 138.268H474.888C474.167 136.263 472.773 135.26 470.705 135.26C469.232 135.26 468.057 135.84 467.18 136.999C466.303 138.127 465.864 139.756 465.864 141.887C465.864 144.018 466.303 145.663 467.18 146.822C468.057 147.95 469.232 148.514 470.705 148.514C472.773 148.514 474.167 147.511 474.888 145.506H483.442C482.753 148.577 481.296 150.989 479.071 152.744C476.846 154.499 474.105 155.376 470.846 155.376C468.277 155.376 465.989 154.828 463.984 153.731C462.01 152.634 460.459 151.068 459.331 149.031C458.234 146.994 457.686 144.613 457.686 141.887ZM503.768 155L495.778 144.002V155H487.741V120.22H495.778V139.443L503.721 128.774H513.638L502.734 141.934L513.732 155H503.768ZM541.517 141.464C541.517 142.216 541.47 142.999 541.376 143.814H523.187C523.312 145.443 523.829 146.697 524.738 147.574C525.678 148.42 526.821 148.843 528.169 148.843C530.174 148.843 531.568 147.997 532.352 146.305H540.906C540.467 148.028 539.668 149.579 538.509 150.958C537.381 152.337 535.955 153.418 534.232 154.201C532.508 154.984 530.581 155.376 528.451 155.376C525.881 155.376 523.594 154.828 521.589 153.731C519.583 152.634 518.017 151.068 516.889 149.031C515.761 146.994 515.197 144.613 515.197 141.887C515.197 139.161 515.745 136.78 516.842 134.743C517.97 132.706 519.536 131.14 521.542 130.043C523.547 128.946 525.85 128.398 528.451 128.398C530.989 128.398 533.245 128.931 535.219 129.996C537.193 131.061 538.728 132.581 539.825 134.555C540.953 136.529 541.517 138.832 541.517 141.464ZM533.292 139.349C533.292 137.97 532.822 136.874 531.882 136.059C530.942 135.244 529.767 134.837 528.357 134.837C527.009 134.837 525.866 135.229 524.926 136.012C524.017 136.795 523.453 137.908 523.234 139.349H533.292ZM553.794 133.145C554.734 131.704 555.909 130.576 557.319 129.761C558.729 128.915 560.295 128.492 562.019 128.492V136.999H559.81C557.804 136.999 556.3 137.438 555.298 138.315C554.295 139.161 553.794 140.665 553.794 142.827V155H545.757V128.774H553.794V133.145Z" fill="#993E3A"/>
<mask id="path-2-inside-1_46_13" fill="white">
<path fill-rule="evenodd" clip-rule="evenodd" d="M103.915 2.14044C99.576 -0.713482 93.9553 -0.71348 89.6162 2.14044L5.86092 57.228C2.20252 59.6342 -0.00012207 63.7193 -0.00012207 68.0981V205.397C-0.00012207 212.582 5.82488 218.407 13.0104 218.407H39.0315H56.1078V218.407C59.1377 218.407 60.6604 214.429 58.6669 212.147C49.0499 201.14 43.0973 185.902 43.0973 169.065C43.0973 135.494 66.7614 108.28 95.9525 108.28C125.144 108.28 148.808 135.494 148.808 169.065C148.808 185.278 143.288 200.009 134.291 210.908C132.012 213.668 133.844 218.407 137.424 218.407V218.407H155.313H180.521C187.706 218.407 193.531 212.582 193.531 205.397V68.0981C193.531 63.7193 191.329 59.6342 187.67 57.228L103.915 2.14044Z"/>
</mask>
<path fill-rule="evenodd" clip-rule="evenodd" d="M103.915 2.14044C99.576 -0.713482 93.9553 -0.71348 89.6162 2.14044L5.86092 57.228C2.20252 59.6342 -0.00012207 63.7193 -0.00012207 68.0981V205.397C-0.00012207 212.582 5.82488 218.407 13.0104 218.407H39.0315H56.1078V218.407C59.1377 218.407 60.6604 214.429 58.6669 212.147C49.0499 201.14 43.0973 185.902 43.0973 169.065C43.0973 135.494 66.7614 108.28 95.9525 108.28C125.144 108.28 148.808 135.494 148.808 169.065C148.808 185.278 143.288 200.009 134.291 210.908C132.012 213.668 133.844 218.407 137.424 218.407V218.407H155.313H180.521C187.706 218.407 193.531 212.582 193.531 205.397V68.0981C193.531 63.7193 191.329 59.6342 187.67 57.228L103.915 2.14044Z" fill="#FADEBE"/>
<path d="M134.291 210.908L143.545 218.547L134.291 210.908ZM58.6669 212.147L67.7038 204.252L58.6669 212.147ZM12.4551 67.2538L96.2104 12.1662L83.022 -7.88536L-0.73326 47.2022L12.4551 67.2538ZM11.9999 205.397V68.0981H-12.0001V205.397H11.9999ZM39.0315 206.407H13.0104V230.407H39.0315V206.407ZM56.1078 206.407H39.0315V230.407H56.1078V206.407ZM67.7038 204.252C60.0586 195.501 55.0973 183.093 55.0973 169.065H31.0973C31.0973 188.71 38.0412 206.778 49.63 220.043L67.7038 204.252ZM55.0973 169.065C55.0973 140.492 74.9089 120.28 95.9525 120.28V96.2801C58.6139 96.2801 31.0973 130.497 31.0973 169.065H55.0973ZM95.9525 120.28C116.996 120.28 136.808 140.492 136.808 169.065H160.808C160.808 130.497 133.291 96.2801 95.9525 96.2801V120.28ZM136.808 169.065C136.808 182.57 132.208 194.581 125.037 203.268L143.545 218.547C154.367 205.438 160.808 187.987 160.808 169.065H136.808ZM155.313 206.407H137.424V230.407H155.313V206.407ZM180.521 206.407H155.313V230.407H180.521V206.407ZM181.531 68.0981V205.397H205.531V68.0981H181.531ZM97.321 12.1662L181.076 67.2538L194.265 47.2022L110.509 -7.88536L97.321 12.1662ZM125.037 203.268C120.617 208.623 120.563 215.328 122.541 220.204C124.555 225.168 129.668 230.407 137.424 230.407V206.407C141.6 206.407 144.008 209.277 144.781 211.182C145.517 212.997 145.687 215.953 143.545 218.547L125.037 203.268ZM205.531 68.0981C205.531 59.6806 201.297 51.8278 194.265 47.2022L181.076 67.2538C181.36 67.4407 181.531 67.758 181.531 68.0981H205.531ZM-12.0001 205.397C-12.0001 219.21 -0.802538 230.407 13.0104 230.407V206.407C12.4523 206.407 11.9999 205.955 11.9999 205.397H-12.0001ZM180.521 230.407C194.334 230.407 205.531 219.21 205.531 205.397H181.531C181.531 205.955 181.079 206.407 180.521 206.407V230.407ZM96.2104 12.1662C96.5474 11.9446 96.984 11.9446 97.321 12.1662L110.509 -7.88536C102.168 -13.3715 91.3632 -13.3715 83.022 -7.88536L96.2104 12.1662ZM56.1078 230.407C63.5386 230.407 68.4914 225.409 70.4179 220.577C72.3088 215.834 72.141 209.331 67.7038 204.252L49.63 220.043C47.1863 217.245 47.2538 213.873 48.1243 211.689C49.0303 209.417 51.7068 206.407 56.1078 206.407V230.407ZM-0.73326 47.2022C-7.76593 51.8278 -12.0001 59.6807 -12.0001 68.0981H11.9999C11.9999 67.758 12.171 67.4407 12.4551 67.2538L-0.73326 47.2022Z" fill="#993E3A" mask="url(#path-2-inside-1_46_13)"/>
<path d="M118.358 152.849C118.011 153.603 117.996 153.965 118.207 155.141C118.252 155.458 118.268 155.443 116.182 155.759C115.865 155.82 115.608 155.91 115.608 155.986C115.608 156.061 115.412 156.121 115.155 156.121C114.913 156.121 114.701 156.182 114.701 156.272C114.701 156.347 114.596 156.423 114.475 156.423C114.354 156.423 114.248 156.483 114.248 156.559C114.248 156.634 114.112 156.739 113.961 156.8C113.538 156.92 111.83 158.624 111.83 158.911C111.83 159.031 111.77 159.137 111.679 159.137C111.604 159.137 111.528 159.242 111.528 159.363C111.528 159.484 111.468 159.589 111.377 159.589C111.301 159.589 111.226 159.725 111.226 159.891C111.226 160.057 111.165 160.192 111.075 160.192C110.999 160.192 110.924 160.328 110.924 160.494C110.924 160.66 110.863 160.795 110.773 160.795C110.697 160.795 110.591 161.037 110.531 161.323C110.485 161.61 110.38 161.851 110.304 161.851C110.229 161.851 110.168 162.017 110.168 162.228C110.168 162.439 110.108 162.605 110.017 162.605C109.941 162.605 109.866 162.876 109.866 163.208C109.866 163.539 109.805 163.811 109.715 163.811C109.639 163.811 109.564 163.916 109.564 164.052C109.564 164.399 109.095 165.756 108.944 165.861C108.869 165.907 108.808 166.133 108.808 166.389C108.808 166.63 108.748 166.826 108.657 166.826C108.581 166.826 108.506 167.068 108.506 167.354C108.506 167.641 108.445 167.882 108.355 167.882C108.279 167.882 108.204 168.048 108.204 168.259C108.204 168.47 108.143 168.636 108.053 168.636C107.977 168.636 107.902 168.756 107.902 168.892C107.902 169.043 107.796 169.299 107.675 169.45C107.554 169.616 107.448 169.872 107.448 170.023C107.448 170.174 107.388 170.294 107.297 170.294C107.222 170.294 107.146 170.535 107.146 170.822C107.146 171.108 107.086 171.35 106.995 171.35C106.919 171.35 106.844 171.621 106.844 171.953C106.844 172.284 106.783 172.556 106.708 172.556C106.632 172.556 106.542 173.008 106.496 173.566C106.36 175.27 106.073 177.004 105.922 177.049C105.846 177.079 105.786 177.305 105.786 177.547C105.786 177.788 105.726 177.984 105.635 177.984C105.559 177.984 105.484 178.15 105.484 178.361C105.484 178.572 105.423 178.738 105.333 178.738C105.257 178.738 105.182 178.934 105.182 179.19C105.182 179.431 105.136 179.642 105.076 179.642C105 179.642 104.834 179.944 104.683 180.321C104.517 180.698 104.335 180.999 104.26 180.999C104.184 180.999 104.124 181.105 104.124 181.225C104.124 181.346 104.063 181.452 103.973 181.452C103.897 181.452 103.822 181.557 103.822 181.678C103.822 181.814 103.655 182.1 103.444 182.326C103.232 182.552 103.066 182.778 103.066 182.854C103.066 183.05 100.769 185.281 100.24 185.598C99.9683 185.764 99.7416 185.945 99.7416 186.005C99.7416 186.065 99.6056 186.126 99.4394 186.126C99.2732 186.126 99.1372 186.186 99.1372 186.276C99.1372 186.352 99.0465 186.427 98.9257 186.427C98.8048 186.427 98.4119 186.593 98.0643 186.804C97.7017 187.015 97.2484 187.181 97.067 187.181C96.8706 187.181 96.7195 187.241 96.7195 187.332C96.7195 187.407 96.4173 187.483 96.0395 187.483C95.6617 187.483 95.3595 187.543 95.3595 187.633C95.3595 187.724 94.332 187.784 92.564 187.784C90.796 187.784 89.7685 187.724 89.7685 187.633C89.7685 187.543 89.4361 187.483 89.0129 187.483C88.605 187.483 88.2574 187.407 88.2574 187.332C88.2574 187.241 88.1063 187.181 87.925 187.181C87.5472 187.181 85.6432 186.427 85.5677 186.246C85.5375 186.171 85.3863 186.126 85.2201 186.126C85.069 186.126 84.933 186.05 84.933 185.975C84.933 185.884 84.797 185.824 84.6308 185.824C84.4646 185.824 84.3286 185.749 84.3286 185.673C84.3286 185.583 84.2379 185.523 84.1321 185.523C84.0264 185.523 83.6788 185.281 83.3766 184.995C83.0744 184.708 82.7873 184.467 82.7419 184.467C82.6362 184.467 81.9108 183.759 81.9108 183.653C81.9108 183.608 81.6086 183.246 81.2309 182.854C80.8531 182.477 80.5509 182.055 80.5509 181.949C80.5509 181.844 80.4904 181.753 80.3998 181.753C80.3242 181.753 80.2487 181.617 80.2487 181.452C80.2487 181.286 80.1882 181.15 80.0975 181.15C80.022 181.15 79.9464 181.06 79.9464 180.939C79.9464 180.818 79.8558 180.622 79.75 180.517C79.5384 180.291 79.1909 179.356 79.1909 178.994C79.1909 178.858 79.1305 178.738 79.0398 178.738C78.9642 178.738 78.8887 178.496 78.8887 178.21C78.8887 177.923 78.8282 177.682 78.7376 177.682C78.662 177.682 78.5865 177.411 78.5865 177.064C78.5865 176.732 78.5109 176.325 78.4202 176.159C78.2238 175.767 78.2238 171.5 78.4354 171.289C78.5109 171.214 78.5865 170.777 78.5865 170.339C78.5865 169.902 78.662 169.54 78.7376 169.54C78.8282 169.54 78.8887 169.374 78.8887 169.163C78.8887 168.952 78.9491 168.666 79.0096 168.515C79.8256 166.841 80.0069 166.525 80.1127 166.525C80.1882 166.525 80.2487 166.419 80.2487 166.284C80.2487 166.148 80.3847 165.907 80.566 165.756C80.7322 165.605 80.8531 165.364 80.8229 165.213C80.7775 164.972 80.5811 164.942 79.1456 164.896C78.254 164.881 77.5287 164.912 77.5287 164.987C77.5287 165.123 76.8789 165.469 76.6221 165.469C76.3954 165.469 76.4407 164.912 76.6976 164.655C76.8185 164.535 76.9243 164.323 76.9243 164.203C76.9243 164.067 76.9998 163.962 77.0754 163.962C77.166 163.962 77.2265 163.886 77.2265 163.796C77.2265 163.6 77.5891 163.253 78.3598 162.74C78.9945 162.303 79.0851 161.7 78.5411 161.429C77.9669 161.142 76.3803 160.795 75.6247 160.795C74.7785 160.795 72.5421 161.263 72.5421 161.429C72.5421 161.504 72.3759 161.549 72.1644 161.549C71.9528 161.549 71.7866 161.61 71.7866 161.7C71.7866 161.775 71.6506 161.851 71.4844 161.851C71.2124 161.851 71.1821 161.745 71.1821 161.021V160.192H70.6533C70.3662 160.192 70.1244 160.253 70.1244 160.343C70.1244 160.418 69.9884 160.494 69.8222 160.494C69.4897 160.494 69.3537 160.584 68.5378 161.353C68.2506 161.625 67.9484 161.851 67.8578 161.851C67.7822 161.851 67.7067 161.896 67.7067 161.956C67.7067 162.032 67.4951 162.213 67.2533 162.378C67.0116 162.544 66.8 162.725 66.8 162.801C66.8 162.861 66.5582 163.147 66.2711 163.419C65.984 163.705 65.7422 163.992 65.7422 164.067C65.7422 164.143 65.6062 164.293 65.44 164.414C65.2738 164.535 65.1378 164.7 65.1378 164.791C65.1378 164.881 64.896 165.213 64.6089 165.515C64.3218 165.816 64.0801 166.178 64.0801 166.299C64.0801 166.419 64.0196 166.525 63.9289 166.525C63.8534 166.525 63.7778 166.615 63.7778 166.736C63.7778 166.917 62.8259 168.726 62.6294 168.922C62.5992 168.952 62.3574 168.741 62.1005 168.44C61.6321 167.897 61.073 167.731 60.665 168.002C60.3326 168.213 59.6979 169.284 59.6979 169.631C59.6979 169.827 59.6375 169.993 59.5468 169.993C59.4712 169.993 59.3957 170.264 59.3957 170.596C59.3957 170.927 59.3352 171.199 59.2597 171.199C59.1841 171.199 59.0784 171.561 59.033 171.983C58.9877 172.42 58.8517 173.626 58.7157 174.667C58.5344 176.024 58.489 177.29 58.5495 179.145C58.5797 180.668 58.5495 181.753 58.4739 181.753C58.3984 181.753 58.3379 181.678 58.3379 181.602C58.3379 181.512 58.2322 181.452 58.0962 181.452C57.9753 181.452 57.7637 181.346 57.6428 181.225C57.5068 181.105 57.1744 180.999 56.8873 180.999C56.4189 180.999 56.3735 181.045 56.3735 181.452C56.3735 181.693 56.2829 182.07 56.1922 182.296C56.0411 182.628 56.0411 182.718 56.1922 182.778C56.3131 182.809 56.3735 183.17 56.3735 183.804C56.3735 184.347 56.434 184.769 56.5246 184.769C56.6153 184.769 56.6757 185.07 56.6757 185.447C56.6757 185.824 56.7513 186.126 56.8268 186.126C56.9175 186.126 56.978 186.276 56.978 186.457C56.9931 186.653 57.0837 186.97 57.2046 187.181C57.3255 187.392 57.4162 187.739 57.4313 187.965C57.4313 188.206 57.5068 188.387 57.5824 188.387C57.6731 188.387 57.7335 188.553 57.7335 188.764C57.7335 188.975 57.809 189.141 57.8846 189.141C57.9753 189.141 58.0357 189.382 58.0357 189.669C58.0357 189.955 58.1113 190.197 58.1868 190.197C58.2775 190.197 58.3379 190.332 58.3379 190.498C58.3379 190.664 58.3984 190.8 58.489 190.8C58.5646 190.8 58.6704 191.041 58.7308 191.327C58.7761 191.614 58.8819 191.855 58.9575 191.855C59.033 191.855 59.0935 191.991 59.0935 192.157C59.0935 192.323 59.169 192.458 59.2446 192.458C59.3352 192.458 59.3957 192.594 59.3957 192.745C59.3957 192.911 59.441 193.061 59.5166 193.092C59.6526 193.152 60.2872 194.237 60.4081 194.599C60.4534 194.75 60.5441 194.871 60.6197 194.871C60.6952 194.871 60.7557 194.976 60.7557 195.097C60.7557 195.218 60.8312 195.323 60.9068 195.323C60.9974 195.323 61.0579 195.459 61.0579 195.61C61.0579 195.775 61.1485 195.941 61.2543 195.986C61.3903 196.062 61.3903 196.092 61.2543 196.167C61.1485 196.213 61.0579 196.348 61.0579 196.469C61.0579 196.59 60.9974 196.68 60.9068 196.68C60.8161 196.68 60.7557 197.087 60.7557 197.585C60.7557 198.082 60.8161 198.489 60.9068 198.489C60.9974 198.489 61.0579 198.655 61.0579 198.866C61.0579 199.077 61.1183 199.243 61.1939 199.243C61.2694 199.243 61.3752 199.364 61.4357 199.53C61.481 199.68 61.7228 200.027 61.9645 200.284C62.2214 200.54 62.4179 200.826 62.4179 200.917C62.4179 201.007 62.7956 201.445 63.249 201.882C63.7023 202.334 64.0801 202.756 64.0801 202.847C64.0801 202.937 64.1556 203.013 64.2312 203.013C64.3218 203.013 64.6845 203.299 65.0623 203.646C65.848 204.415 66.1502 204.671 66.256 204.671C66.3013 204.671 66.664 204.973 67.0569 205.35C67.4347 205.727 67.8275 206.028 67.9031 206.028C67.9786 206.028 68.16 206.149 68.296 206.3C68.432 206.45 68.7644 206.707 69.0213 206.857C69.2933 207.023 69.52 207.204 69.52 207.265C69.52 207.325 69.656 207.385 69.8222 207.385C69.9884 207.385 70.1244 207.445 70.1244 207.536C70.1244 207.611 70.1848 207.687 70.2604 207.687C70.3359 207.687 70.5173 207.249 70.6684 206.707C70.8195 206.164 71.0008 205.727 71.0613 205.727C71.1368 205.727 71.1821 205.561 71.1821 205.35C71.1821 204.686 71.4541 204.943 71.5297 205.681C71.6959 207.159 71.9075 208.245 72.0737 208.561C72.1644 208.727 72.2399 209.044 72.2399 209.255C72.2399 209.466 72.3155 209.647 72.391 209.647C72.4817 209.647 72.5421 209.813 72.5421 210.024C72.5421 210.235 72.6177 210.401 72.6932 210.401C72.7839 210.401 72.8443 210.642 72.8443 210.928C72.8443 211.531 72.6781 211.577 71.711 211.23C71.3786 211.109 70.8195 211.019 70.4719 211.004C70.1093 211.004 69.8222 210.928 69.8222 210.853C69.8222 210.763 69.4444 210.702 68.9911 210.702C68.5378 210.702 68.16 210.627 68.16 210.551C68.16 210.461 67.7822 210.401 67.3289 210.401C66.8756 210.401 66.4978 210.34 66.4978 210.265C66.4978 210.19 66.2409 210.099 65.9387 210.054C64.6392 209.858 63.5361 209.617 63.4152 209.481C63.2338 209.315 62.7201 209.3 62.7201 209.466C62.7201 209.647 64.1254 210.401 64.4427 210.401C64.5787 210.401 64.6845 210.461 64.6845 210.551C64.6845 210.627 64.8507 210.702 65.0623 210.702C65.2738 210.702 65.44 210.763 65.44 210.853C65.44 210.928 65.576 211.004 65.7422 211.004C65.9085 211.004 66.0445 211.064 66.0445 211.155C66.0445 211.23 66.2107 211.335 66.4222 211.396C66.6338 211.441 66.8 211.547 66.8 211.622C66.8 211.697 66.9662 211.758 67.1778 211.758C67.3893 211.758 67.5555 211.818 67.5555 211.908C67.5555 211.984 67.7671 212.059 68.0089 212.059C68.2658 212.059 68.4622 212.12 68.4622 212.21C68.4622 212.285 68.5529 212.361 68.6737 212.361C68.7946 212.361 69.112 212.481 69.3991 212.617C70.3057 213.069 70.4266 213.115 70.6533 213.115C70.7742 213.115 70.8799 213.175 70.8799 213.265C70.8799 213.341 71.0915 213.416 71.3333 213.416C71.5901 213.416 71.7866 213.476 71.7866 213.567C71.7866 213.642 72.0284 213.718 72.3155 213.718C72.6026 213.718 72.8443 213.778 72.8443 213.869C72.8443 213.944 72.9652 214.019 73.1163 214.019C73.2674 214.019 73.5243 214.125 73.6905 214.245C73.8417 214.366 74.159 214.472 74.4008 214.472C74.6274 214.472 74.8088 214.532 74.8088 214.622C74.8088 214.698 75.0505 214.773 75.3376 214.773C75.6247 214.773 75.8665 214.833 75.8665 214.924C75.8665 214.999 76.1083 215.075 76.3954 215.075C76.6825 215.075 76.9243 215.12 76.9243 215.195C76.9243 215.316 78.0576 215.648 78.934 215.783C79.2362 215.829 79.4931 215.919 79.4931 215.994C79.4931 216.07 79.7953 216.13 80.1731 216.13C80.5509 216.13 80.8531 216.19 80.8531 216.281C80.8531 216.356 81.1553 216.432 81.518 216.432C81.8957 216.432 82.2433 216.492 82.2886 216.582C82.334 216.658 82.6211 216.733 82.9082 216.733C83.2104 216.733 83.573 216.809 83.7393 216.884C83.8904 216.975 84.4646 217.08 85.0086 217.14C85.5526 217.186 85.9908 217.291 85.9908 217.351C85.9908 217.427 86.5045 217.487 87.1241 217.487C87.7739 217.487 88.2574 217.547 88.2574 217.638C88.2574 217.728 88.8467 217.789 89.7383 217.789C90.5543 217.789 91.2947 217.864 91.3702 217.939C91.476 218.045 93.38 218.075 97.0368 218.03C103.308 217.939 105.786 217.834 105.786 217.623C105.786 217.547 106.194 217.487 106.693 217.487C107.191 217.487 107.72 217.427 107.871 217.351C108.143 217.201 109.654 216.914 110.818 216.778C111.211 216.733 111.528 216.643 111.528 216.567C111.528 216.492 111.83 216.432 112.208 216.432C112.586 216.432 112.888 216.356 112.888 216.281C112.888 216.19 113.115 216.13 113.402 216.13C113.689 216.13 113.976 216.055 114.021 215.979C114.067 215.889 114.293 215.829 114.52 215.829C114.747 215.814 115.094 215.723 115.306 215.602C115.517 215.482 115.865 215.391 116.092 215.376C116.318 215.376 116.545 215.316 116.59 215.226C116.636 215.15 116.877 215.075 117.134 215.075C117.376 215.075 117.572 214.999 117.572 214.924C117.572 214.833 117.739 214.773 117.95 214.773C118.162 214.773 118.328 214.698 118.328 214.622C118.328 214.532 118.524 214.472 118.751 214.472C118.993 214.472 119.31 214.366 119.476 214.245C119.628 214.125 119.884 214.019 120.036 214.019C120.172 214.019 120.292 213.944 120.292 213.869C120.292 213.778 120.504 213.718 120.746 213.718C121.003 213.718 121.199 213.642 121.199 213.567C121.199 213.476 121.365 213.416 121.577 213.416C121.788 213.416 121.955 213.341 121.955 213.265C121.955 213.175 122.06 213.115 122.211 213.115C122.544 213.115 123.617 212.632 123.617 212.481C123.617 212.421 123.783 212.361 123.995 212.361C124.206 212.361 124.372 212.285 124.372 212.21C124.372 212.12 124.508 212.059 124.675 212.059C124.841 212.059 124.977 211.984 124.977 211.908C124.977 211.818 125.143 211.758 125.355 211.758C125.566 211.758 125.732 211.697 125.732 211.622C125.732 211.547 126.035 211.366 126.412 211.2C126.79 211.049 127.092 210.883 127.092 210.808C127.092 210.747 127.228 210.702 127.395 210.702C127.561 210.702 127.697 210.627 127.697 210.551C127.697 210.461 127.833 210.401 127.999 210.401C128.165 210.401 128.301 210.325 128.301 210.25C128.301 210.159 128.377 210.099 128.467 210.099C128.558 210.099 128.724 210.009 128.83 209.903C129.359 209.436 129.51 209.345 129.737 209.345C129.858 209.345 129.963 209.27 129.963 209.194C129.963 209.104 130.069 209.044 130.19 209.044C130.311 209.044 130.417 208.968 130.417 208.893C130.417 208.802 130.522 208.742 130.658 208.742C130.794 208.742 131.066 208.576 131.263 208.365C131.459 208.154 131.716 207.988 131.852 207.988C131.973 207.988 132.079 207.913 132.079 207.837C132.079 207.747 131.943 207.687 131.777 207.687C131.61 207.687 131.474 207.747 131.474 207.837C131.474 207.913 131.323 207.988 131.127 207.988C130.946 207.988 130.658 208.079 130.492 208.184C130.326 208.305 129.873 208.486 129.48 208.606C129.072 208.712 128.754 208.863 128.754 208.923C128.754 208.983 128.513 209.044 128.226 209.044C127.938 209.044 127.697 209.104 127.697 209.194C127.697 209.27 127.5 209.345 127.258 209.345C127.002 209.345 126.775 209.406 126.73 209.481C126.669 209.556 126.367 209.662 126.035 209.722C125.702 209.782 125.4 209.888 125.339 209.963C125.294 210.039 125.037 210.099 124.75 210.099C124.463 210.099 124.191 210.159 124.146 210.25C124.1 210.325 123.813 210.401 123.526 210.401C123.239 210.401 123.012 210.461 123.012 210.551C123.012 210.627 122.71 210.702 122.332 210.702C121.955 210.702 121.652 210.763 121.652 210.838C121.652 210.913 121.395 211.004 121.093 211.034C120.776 211.079 120.398 211.155 120.262 211.215C119.854 211.396 119.915 210.913 120.353 210.476C120.549 210.28 120.867 209.813 121.063 209.421C121.244 209.044 121.456 208.742 121.531 208.742C121.592 208.742 121.652 208.637 121.652 208.516C121.652 208.395 121.713 208.29 121.788 208.29C121.864 208.29 121.955 208.079 122.015 207.837C122.106 207.325 122.483 207.234 122.635 207.687C122.68 207.853 122.801 207.988 122.876 207.988C122.952 207.988 123.012 208.229 123.012 208.516C123.012 208.938 123.073 209.044 123.315 209.044C123.481 209.044 123.617 208.953 123.617 208.848C123.617 208.742 123.783 208.486 123.995 208.26C124.206 208.033 124.372 207.747 124.372 207.611C124.372 207.491 124.448 207.385 124.523 207.385C124.614 207.385 124.675 207.28 124.675 207.159C124.675 207.038 124.75 206.933 124.826 206.933C124.916 206.933 124.977 206.797 124.977 206.631C124.977 206.465 125.052 206.33 125.128 206.33C125.219 206.33 125.279 206.209 125.279 206.058C125.279 205.923 125.385 205.666 125.506 205.516C125.627 205.35 125.732 205.093 125.732 204.943C125.732 204.792 125.808 204.671 125.883 204.671C125.974 204.671 126.035 204.43 126.035 204.143C126.035 203.857 126.11 203.616 126.186 203.616C126.276 203.616 126.337 203.314 126.337 202.937C126.337 202.56 126.412 202.259 126.488 202.259C126.579 202.259 126.639 201.927 126.639 201.535C126.639 201.143 126.699 200.751 126.79 200.661C126.866 200.585 127.017 198.866 127.122 196.861C127.228 194.856 127.364 193.212 127.44 193.212C127.515 193.212 127.878 193.514 128.256 193.891C128.996 194.645 129.057 194.675 129.057 194.343C129.057 194.222 129.132 194.117 129.208 194.117C129.298 194.117 129.359 193.363 129.359 192.157C129.359 190.951 129.298 190.197 129.208 190.197C129.132 190.197 129.057 189.835 129.057 189.382C129.057 188.93 128.996 188.508 128.906 188.463C128.83 188.418 128.754 188.191 128.754 187.965C128.739 187.739 128.649 187.392 128.528 187.181C128.407 186.97 128.316 186.653 128.301 186.457C128.301 186.276 128.241 186.126 128.15 186.126C128.074 186.126 127.999 185.915 127.999 185.673C127.999 185.417 127.938 185.221 127.848 185.221C127.772 185.221 127.697 185.055 127.697 184.844C127.697 184.633 127.636 184.467 127.546 184.467C127.47 184.467 127.395 184.316 127.395 184.12C127.395 183.939 127.228 183.487 127.017 183.125C126.805 182.778 126.639 182.386 126.639 182.266C126.639 182.145 126.579 182.055 126.488 182.055C126.412 182.055 126.337 181.889 126.337 181.678C126.337 181.467 126.276 181.301 126.186 181.301C126.11 181.301 126.035 181.165 126.035 180.999C126.035 180.833 125.974 180.698 125.899 180.698C125.823 180.698 125.566 180.245 125.339 179.672C125.098 179.115 124.856 178.632 124.795 178.617C124.72 178.587 124.675 178.466 124.675 178.346C124.675 178.089 123.889 176.416 123.738 176.355C123.662 176.325 123.617 176.129 123.617 175.933C123.617 175.737 123.556 175.571 123.466 175.571C123.39 175.571 123.315 175.36 123.315 175.119C123.315 174.863 123.254 174.667 123.163 174.667C123.088 174.667 123.012 174.531 123.012 174.35C123.012 174.184 122.937 173.913 122.846 173.747C122.755 173.581 122.619 172.918 122.544 172.284C122.242 169.842 122.317 169.993 121.562 169.993C120.942 169.993 120.338 169.736 119.915 169.314C119.597 168.998 119.235 168.334 119.386 168.334C119.461 168.334 119.537 168.394 119.537 168.485C119.537 168.56 119.628 168.636 119.733 168.636C119.839 168.636 120.02 168.771 120.141 168.937C120.262 169.103 120.474 169.239 120.625 169.239C120.776 169.239 120.897 169.299 120.897 169.39C120.897 169.465 121.199 169.54 121.562 169.54C121.939 169.54 122.287 169.465 122.332 169.39C122.378 169.299 122.559 169.239 122.725 169.239C122.876 169.239 123.012 169.163 123.012 169.088C123.012 168.998 123.133 168.937 123.284 168.937C123.42 168.937 123.617 168.756 123.723 168.515C124.085 167.701 124.372 166.751 124.372 166.374C124.372 165.846 123.874 163.901 123.707 163.781C123.435 163.585 124.055 163.208 124.659 163.208C124.992 163.208 125.309 163.132 125.355 163.057C125.4 162.966 126.019 162.906 126.73 162.906C127.757 162.906 127.999 162.861 127.999 162.68C127.999 162.559 127.938 162.454 127.848 162.454C127.772 162.454 127.697 162.348 127.697 162.213C127.697 162.092 127.606 161.896 127.515 161.775C127.41 161.67 127.183 161.398 127.032 161.187C126.881 160.976 126.684 160.795 126.609 160.795C126.231 160.795 126.035 160.328 126.035 159.363C126.035 158.413 125.702 157.026 125.385 156.604C125.309 156.513 125.113 156.423 124.962 156.423C124.735 156.423 124.675 156.317 124.675 155.895C124.675 155.609 124.614 155.367 124.523 155.367C124.448 155.367 124.372 155.232 124.372 155.066C124.372 154.9 124.267 154.764 124.146 154.764C124.025 154.764 123.919 154.825 123.919 154.915C123.919 154.99 123.859 155.066 123.768 155.066C123.692 155.066 123.617 154.9 123.617 154.689C123.617 154.478 123.556 154.312 123.466 154.312C123.39 154.312 123.315 154.101 123.315 153.86C123.315 153.302 123.224 153.302 122.786 153.799L122.453 154.191L122.196 153.709C122.06 153.437 121.955 153.091 121.955 152.955C121.955 152.427 121.214 152.472 121.199 152.985C121.199 153.06 121.063 153.106 120.897 153.106C120.67 153.106 120.595 153 120.595 152.729C120.595 152.457 120.519 152.352 120.292 152.352C120.126 152.352 119.99 152.457 119.99 152.578C119.99 152.94 119.688 152.834 119.537 152.427C119.446 152.171 119.28 152.05 119.053 152.05C118.781 152.05 118.63 152.216 118.358 152.849ZM97.5204 200.932C97.7923 201.113 98.0795 201.339 98.1852 201.429C98.7443 201.897 98.835 201.957 98.9861 201.957C99.0617 201.957 99.1372 202.093 99.1372 202.244C99.1372 202.41 99.2732 202.59 99.4394 202.636C99.6056 202.681 99.7416 202.832 99.7416 202.937C99.7416 203.058 99.9834 203.405 100.271 203.706C100.558 203.993 100.799 204.339 100.799 204.46C100.799 204.581 100.875 204.671 100.951 204.671C101.041 204.671 101.102 204.807 101.102 204.973C101.102 205.139 101.177 205.274 101.253 205.274C101.343 205.274 101.404 205.44 101.404 205.651C101.404 205.862 101.464 206.028 101.525 206.028C101.812 206.028 102.159 207.747 102.159 209.119C102.159 210.325 102.099 210.672 101.751 211.486C101.525 212.014 101.117 212.662 100.845 212.919L100.361 213.416H96.5684C93.4706 213.416 92.7302 213.371 92.5489 213.205C92.428 213.084 92.3373 212.919 92.3373 212.828C92.3373 212.738 92.2769 212.662 92.1862 212.662C92.1107 212.662 92.0351 212.527 92.0351 212.361C92.0351 212.195 91.9747 212.059 91.884 212.059C91.8085 212.059 91.7329 211.939 91.7329 211.788C91.7329 211.637 91.6573 211.441 91.5516 211.335C90.9774 210.763 90.9622 207.415 91.5213 206.3C91.6422 206.073 91.7329 205.757 91.7329 205.576C91.7329 205.41 91.8085 205.274 91.884 205.274C91.9747 205.274 92.0351 205.108 92.0351 204.897C92.0351 204.686 92.1107 204.52 92.1862 204.52C92.2769 204.52 92.3373 204.385 92.3373 204.219C92.3373 204.053 92.4129 203.917 92.4884 203.917C92.5791 203.917 92.6395 203.812 92.6395 203.676C92.6395 203.555 92.7302 203.344 92.836 203.239C93.2289 202.786 93.3951 202.575 93.3951 202.485C93.3951 202.289 94.9062 200.902 95.1177 200.902C95.2537 200.902 95.3595 200.826 95.3595 200.751C95.3595 200.661 95.7373 200.6 96.2057 200.6C96.8404 200.6 97.1728 200.691 97.5204 200.932ZM87.3508 203.163C87.3508 203.239 87.653 203.314 88.0307 203.314C88.4085 203.314 88.7107 203.374 88.7107 203.465C88.7107 203.54 88.8618 203.616 89.0432 203.616C89.2396 203.616 89.7836 203.797 90.252 204.023L91.1285 204.445L91.0378 205.048C90.9774 205.38 90.8867 205.666 90.8111 205.696C90.7356 205.727 90.6751 206.058 90.6751 206.42C90.6751 206.782 90.6147 207.084 90.524 207.084C90.4334 207.084 90.3729 207.837 90.3729 209.044C90.3729 210.25 90.4334 211.004 90.524 211.004C90.6147 211.004 90.6751 211.245 90.6751 211.531C90.6751 211.818 90.7507 212.059 90.8262 212.059C90.9169 212.059 90.9774 212.18 90.9774 212.346C90.9774 212.496 91.0831 212.708 91.204 212.813C91.3249 212.919 91.4307 213.1 91.4307 213.205C91.4307 213.371 91.1134 213.416 89.9952 213.416C89.1338 213.416 88.5596 213.356 88.5596 213.265C88.5596 213.175 87.8041 213.115 86.6103 213.115C84.8726 213.115 84.6308 213.084 84.2681 212.798C84.0566 212.632 83.8753 212.406 83.8753 212.3C83.8753 212.21 83.7393 212.029 83.573 211.908C83.4068 211.788 83.2708 211.577 83.2708 211.426C83.2708 211.275 83.2104 211.155 83.1197 211.155C83.0442 211.155 82.9686 210.989 82.9686 210.778C82.9686 210.567 82.9082 210.401 82.8326 210.401C82.6664 210.401 82.2131 209.21 82.2131 208.772C82.2131 208.591 82.1526 208.441 82.062 208.441C81.9713 208.441 81.9108 208.033 81.9108 207.536C81.9108 207.038 81.8504 206.631 81.7597 206.631C81.6842 206.631 81.6086 206.36 81.6086 206.028C81.6086 205.696 81.6842 205.425 81.7597 205.425C81.8504 205.425 81.9108 205.214 81.9108 204.958C81.9108 204.339 82.8931 203.314 83.4824 203.314C83.6939 203.314 83.8753 203.239 83.8753 203.163C83.8753 203.073 84.5552 203.013 85.613 203.013C86.6708 203.013 87.3508 203.073 87.3508 203.163ZM109.356 204.86C109.469 204.916 109.624 204.973 109.866 204.973C110.123 204.973 110.44 205.033 110.591 205.108C110.727 205.184 111.135 205.365 111.483 205.516C111.845 205.681 112.133 205.847 112.133 205.908C112.133 205.983 112.208 206.028 112.299 206.028C112.495 206.028 112.888 206.405 112.888 206.601C112.888 206.692 112.964 206.782 113.054 206.812C113.281 206.888 113.266 208.938 113.054 209.014C112.964 209.044 112.888 209.194 112.888 209.36C112.888 209.511 112.828 209.647 112.737 209.647C112.661 209.647 112.586 209.722 112.586 209.813C112.586 209.903 112.495 210.069 112.405 210.175C111.997 210.627 111.83 210.838 111.83 210.928C111.83 210.974 111.679 211.185 111.498 211.396C110.123 212.904 109.609 213.115 107.342 213.115C106.406 213.115 105.786 213.175 105.786 213.265C105.786 213.522 102.93 213.461 102.673 213.205C102.446 212.964 102.371 211.758 102.598 211.758C102.885 211.758 103.187 208.35 102.93 208.094C102.839 208.003 102.764 207.641 102.764 207.295C102.764 206.933 102.688 206.631 102.582 206.601C102.114 206.435 104.199 204.973 104.894 204.973C105.046 204.973 105.182 204.897 105.182 204.822C105.182 204.731 105.982 204.671 107.297 204.671C108.612 204.671 109.242 204.784 109.356 204.86Z" fill="#993E3A"/>
</svg>
